<svg xmlns="http://www.w3.org/2000/svg" width="118.807" height="118.807" viewBox="0 0 118.807 118.807"><path d="M-3080.667,53.906-3097.5,5.889h5.938a2.338,2.338,0,0,0,2.476-2.475,2.338,2.338,0,0,0-2.476-2.475h-96.281a2.338,2.338,0,0,0-2.475,2.475,2.338,2.338,0,0,0,2.475,2.475h5.939l-17.078,48.266c-.248,0-.248.99-.248.99.248,9.9,9.406,17.573,20.793,17.573,11.137,0,20.295-7.674,20.791-17.573,0,0,0-.742-.248-.99l-17.078-48.266h32.92V16.532h-.248a2.48,2.48,0,0,0-2.475,2.475L-3147,102.172h-23.762a2.338,2.338,0,0,0-2.475,2.475V117.27a2.338,2.338,0,0,0,2.475,2.475h62.126a2.339,2.339,0,0,0,2.476-2.475V104.4a2.339,2.339,0,0,0-2.476-2.475H-3132.4l-1.98-83.165a2.662,2.662,0,0,0-2.475-2.475h-.5V5.641h32.673l-17.08,48.018a5.6,5.6,0,0,1-.248.99c.248,9.9,9.406,17.573,20.793,17.573,11.137,0,20.295-7.672,20.791-17.573C-3080.419,54.9-3080.419,53.906-3080.667,53.906Zm-30.444,60.888h-57.175v-7.92h57.175Zm-30.938-12.871,1.979-80.689h.742l1.979,80.689Zm55.69-49.751h-29.455l14.6-41.334Zm-92.074-41.334,14.6,41.581h-29.454Zm0,56.68c-7.426,0-13.615-4.455-15.346-10.148h30.691C-3164.821,63.064-3171.257,67.519-3178.433,67.519Zm77.224-.246c-7.426,0-13.615-4.457-15.346-10.149h30.692C-3087.349,62.816-3093.785,67.273-3101.209,67.273Z" transform="translate(3199.226 -0.938)" fill="#0d4be3"/></svg>