<svg xmlns="http://www.w3.org/2000/svg" width="158.372" height="148.542" viewBox="0 0 158.372 148.542"><path d="M-2767.081,96.282l-13.012-14.473a9.586,9.586,0,0,0,3.359-5.6c.943-4.109-1.037-8.279-4.65-10.787a11.974,11.974,0,0,0,4.905-10.864c-.477-6.526-6.762-11.5-15.373-12.984a2.429,2.429,0,0,0,.77-1.273c1.331-5.819-1.5-12.09-7.959-17.659-6.033-5.2-14.645-9.277-24.252-11.473s-19.138-2.281-26.836-.223c-6.734,1.8-11.441,5.1-13.678,9.409a17.813,17.813,0,0,0-11.034-5.753,31.591,31.591,0,0,0-18.435,3.1c-11.91,5.755-18.6,17.042-15.908,26.09a17.771,17.771,0,0,0-9.957,6.171,24.3,24.3,0,0,0-5.443,15.41,24.273,24.273,0,0,0,5.151,15.51,17.21,17.21,0,0,0,13.28,6.778h.026a2.23,2.23,0,0,0,.617-.123,16.143,16.143,0,0,0,4.88,7.891,25.74,25.74,0,0,0,14.4,6.313,28.617,28.617,0,0,0,3.391.2c7.143,0,13.469-2.728,17.066-7.048a13.2,13.2,0,0,0,6.205,7.514c2.926,1.6,6.714,2.376,11.728,2.376q2.036,0,4.35-.169c6.153-.44,14.836-3.045,19.214-7.585a57.5,57.5,0,0,1,7.612-5.308,2.439,2.439,0,0,0,1.46-.015c7.306-2.612,26.535,7.783,37.066,15.014a3.578,3.578,0,0,0,2.18.857c.073.005.148.005.223.005,1.742,0,3.961-1.064,5.985-2.887,2.116-1.9,3.443-4.089,3.536-5.868A3.512,3.512,0,0,0-2767.081,96.282Zm-5.982,4.745a7.708,7.708,0,0,1-2.4,1.548c-3.138-2.143-18.843-12.56-31.328-15.427a35,35,0,0,1,9.432-1.89,2.476,2.476,0,0,0,2.354-2.6,2.5,2.5,0,0,0-2.6-2.349c-15.793.772-29.372,12.51-30.092,13.147-3.052,3.158-9.848,5.78-16.158,6.232-6.178.454-10.542-.076-13.348-1.614-1.824-1-4.3-3.012-4.733-8.922a2.45,2.45,0,0,0-.852-1.69,2.412,2.412,0,0,0-.134-.614c-.109-7.175-7.682-13.754-18.2-15.412a2.481,2.481,0,0,0-2.831,2.062,2.476,2.476,0,0,0,2.059,2.831c8.343,1.312,14.744,6.581,13.975,11.5a2.373,2.373,0,0,0,.033.757c-1.541,5.625-9.186,9.264-17.771,8.239a20.723,20.723,0,0,1-11.616-5.028c-2.694-2.5-3.988-5.46-3.644-8.352a2.448,2.448,0,0,0-1.012-2.258,2.455,2.455,0,0,0,.872-2.367c-1.036-5.119,3.271-10.323,9.6-11.6a2.477,2.477,0,0,0,1.938-2.915,2.48,2.48,0,0,0-2.919-1.939c-9,1.818-15.041,9.637-13.469,17.434a2.465,2.465,0,0,0,.948,1.48,2.439,2.439,0,0,0-.838,1.5,2.749,2.749,0,0,0-.311-.067,12.366,12.366,0,0,1-9.476-4.941,19.316,19.316,0,0,1-4.052-12.348,19.336,19.336,0,0,1,4.287-12.274,12.623,12.623,0,0,1,9.562-4.763,2.445,2.445,0,0,0,2.5-2.45,2.4,2.4,0,0,0-.429-1.339,2.494,2.494,0,0,0-.228-.887c-3.312-6.868,2.44-16.533,12.82-21.548a26.6,26.6,0,0,1,15.5-2.671,14.128,14.128,0,0,1,6.735,2.8,16.8,16.8,0,0,0-7.16,2.453,13.343,13.343,0,0,0-5.994,8.353,2.473,2.473,0,0,0,1.883,2.949,2.35,2.35,0,0,0,.534.057,2.479,2.479,0,0,0,2.418-1.941,8.326,8.326,0,0,1,3.824-5.247,12.858,12.858,0,0,1,9.635-1.477,2.458,2.458,0,0,0,2.912-1.789,2.427,2.427,0,0,0,.7-1.172c.9-3.939,4.91-7.048,11.292-8.753,6.932-1.855,15.613-1.76,24.453.265s16.695,5.715,22.128,10.4c5,4.313,7.267,8.863,6.362,12.807a2.454,2.454,0,0,0,.4,1.959,34.481,34.481,0,0,0-4.25.035,2.479,2.479,0,0,0-2.29,2.647,2.49,2.49,0,0,0,2.649,2.293c9.342-.686,17.58,3.34,17.98,8.783.254,3.534-1.339,6.064-4.866,7.729a2.4,2.4,0,0,0-.984.921,2.43,2.43,0,0,0-1.574,1.718,2.48,2.48,0,0,0,1.86,2.968c3.661.841,6.094,3.915,5.421,6.851a4.4,4.4,0,0,1-1.855,3.008l-1.656-1.841a2.473,2.473,0,0,0-3.5-.184,2.48,2.48,0,0,0-.186,3.5l17.41,19.364A8.046,8.046,0,0,1-2773.064,101.027Z" transform="translate(2924.586 40.949)" fill="#0d4be3"/><path d="M-2859.193,34.337c-7.431,1.5-12.832,7.1-13.6,13.4a27.135,27.135,0,0,0-12.463-.315,2.475,2.475,0,0,0-1.937,2.915,2.476,2.476,0,0,0,2.916,1.937,21.3,21.3,0,0,1,11.8.7c2.968,1.17,4.849,3.027,5.29,5.231a2.481,2.481,0,0,0,2.426,1.99,2.558,2.558,0,0,0,.487-.051,2.469,2.469,0,0,0,1.937-2.912,11.443,11.443,0,0,0-5.539-7.463c-.317-4.779,3.765-9.4,9.665-10.584a2.472,2.472,0,0,0,1.936-2.915A2.473,2.473,0,0,0-2859.193,34.337Z" transform="translate(2950.208 57.984)" fill="#0d4be3"/><path d="M-2858.069,20.263a26.287,26.287,0,0,0-14.586-.958,2.475,2.475,0,0,0-1.939,2.917,2.478,2.478,0,0,0,2.917,1.937,21.3,21.3,0,0,1,11.8.71c2.968,1.172,4.848,3.027,5.293,5.236a2.477,2.477,0,0,0,2.423,1.988,2.612,2.612,0,0,0,.494-.051,2.477,2.477,0,0,0,1.938-2.915C-2850.526,25.219-2853.483,22.072-2858.069,20.263Z" transform="translate(2958.855 47.296)" fill="#0d4be3"/><path d="M-2862.265,12.465a2.466,2.466,0,0,0,1.17.3,2.487,2.487,0,0,0,2.186-1.3l11.916-22.173a2.475,2.475,0,0,0-1.01-3.35,2.473,2.473,0,0,0-3.352,1.007L-2863.27,9.115A2.474,2.474,0,0,0-2862.265,12.465Z" transform="translate(2966.457 24.6)" fill="#0d4be3"/><path d="M-2893.213,13.044a2.464,2.464,0,0,0,2.03,1.059,2.462,2.462,0,0,0,1.413-.445,2.476,2.476,0,0,0,.615-3.447l-14.4-20.659a2.475,2.475,0,0,0-3.445-.614,2.477,2.477,0,0,0-.617,3.445Z" transform="translate(2935.925 26.56)" fill="#0d4be3"/><path d="M-2881.328,13.081a2.475,2.475,0,0,0,2.476-2.475V-17.959a2.474,2.474,0,0,0-2.476-2.475,2.476,2.476,0,0,0-2.475,2.475V10.605A2.477,2.477,0,0,0-2881.328,13.081Z" transform="translate(2952.571 20.434)" fill="#0d4be3"/></svg>