<svg xmlns="http://www.w3.org/2000/svg" width="116.749" height="124.788" viewBox="0 0 116.749 124.788"><g transform="translate(0)"><path d="M-2641.345,58.2a3.276,3.276,0,0,0-3.28-3.276h-32.766a3.278,3.278,0,0,0-3.279,3.276,3.279,3.279,0,0,0,3.279,3.278h32.766A3.277,3.277,0,0,0-2641.345,58.2Z" transform="translate(2719.381 51.145)" fill="#0d4be3"/><path d="M-2675.861,60.844c-1.508,0-1.924.922-.932,2.057l5.487,6.268a1.377,1.377,0,0,0,.909.413h14.2a1.367,1.367,0,0,0,.907-.411l5.488-6.268c.993-1.135.575-2.057-.934-2.057h-25.123Z" transform="translate(2721.673 55.206)" fill="#0d4be3"/><path d="M-2685.3,25.244h-15.978a2.354,2.354,0,0,0-2.354,2.354,2.351,2.351,0,0,0,2.354,2.352h15.978Z" transform="translate(2703.628 30.778)" fill="#0d4be3"/><path d="M-2629.284,25.243h-15.979v4.71h15.979a2.352,2.352,0,0,0,2.354-2.354A2.352,2.352,0,0,0-2629.284,25.243Z" transform="translate(2743.679 30.777)" fill="#0d4be3"/><path d="M-2665.7-5.626a2.354,2.354,0,0,0-2.354-2.354,2.356,2.356,0,0,0-2.354,2.354V10.351h4.708Z" transform="translate(2726.426 7.98)" fill="#0d4be3"/><path d="M-2666.137,18.658a16.748,16.748,0,0,1,12.557,12.56,2.082,2.082,0,0,0,2.033,1.624,2.176,2.176,0,0,0,.462-.051,2.09,2.09,0,0,0,1.575-2.5,20.938,20.938,0,0,0-15.707-15.705,2.079,2.079,0,0,0-2.492,1.575A2.078,2.078,0,0,0-2666.137,18.658Z" transform="translate(2728.239 23.431)" fill="#0d4be3"/><path d="M-2689.12,40.439c0,9.122,4.33,16.243,8.515,23.129,2.98,4.9,5.829,9.623,7.332,15.059a3.26,3.26,0,0,0-1.6,2.8,3.278,3.278,0,0,0,3.279,3.28h32.766a3.277,3.277,0,0,0,3.28-3.28,3.264,3.264,0,0,0-1.6-2.8c1.5-5.436,4.35-10.159,7.332-15.059,4.187-6.888,8.515-14.007,8.515-23.129A33.948,33.948,0,0,0-2655.208,6.53,33.95,33.95,0,0,0-2689.12,40.439Zm33.911-28.259a28.292,28.292,0,0,1,28.259,28.259c0,7.541-3.737,13.683-7.693,20.192-3.263,5.369-6.581,10.883-8.213,17.521h-24.7c-1.631-6.639-4.949-12.154-8.213-17.521-3.958-6.505-7.694-12.65-7.694-20.192A28.291,28.291,0,0,1-2655.209,12.18Z" transform="translate(2713.583 17.937)" fill="#0d4be3"/><path d="M-2693.207,57.071a2.354,2.354,0,0,0,3.33,0l11.3-11.3-3.33-3.33-11.3,11.3A2.35,2.35,0,0,0-2693.207,57.071Z" transform="translate(2710.305 42.581)" fill="#0d4be3"/><path d="M-2638.577,2.441a2.352,2.352,0,0,0-3.328,0l-11.3,11.3,3.328,3.33,11.3-11.3A2.353,2.353,0,0,0-2638.577,2.441Z" transform="translate(2738.229 14.657)" fill="#0d4be3"/><path d="M-2641.906,57.071a2.35,2.35,0,0,0,3.327,0,2.352,2.352,0,0,0,0-3.329l-11.3-11.3-3.328,3.329Z" transform="translate(2738.229 42.581)" fill="#0d4be3"/><path d="M-2693.207,2.441a2.355,2.355,0,0,0,0,3.33l11.3,11.3,3.332-3.33-11.3-11.3A2.354,2.354,0,0,0-2693.207,2.441Z" transform="translate(2710.304 14.657)" fill="#0d4be3"/></g></svg>