<svg xmlns="http://www.w3.org/2000/svg" width="153.46" height="153.46" viewBox="0 0 153.46 153.46"><g transform="translate(0)"><path d="M-2983.45,50.178a9.911,9.911,0,0,0,9.9-9.9h-4.951a4.955,4.955,0,0,1-4.95,4.949,4.955,4.955,0,0,1-4.951-4.949h-4.95A9.911,9.911,0,0,0-2983.45,50.178Z" transform="translate(3060.18 46.353)" fill="#0d4be3"/><path d="M-2922.712,97.417l-25.281-8.431V82.054a27.255,27.255,0,0,0,8.883-13.709,12.349,12.349,0,0,0,10.918-12.227v-19.8a37.324,37.324,0,0,0-21.214-33.554l-2.123,4.473a32.349,32.349,0,0,1,18.388,29.08v9.965a12.277,12.277,0,0,0-4.951-2.288v-5.2h-4.951v6.8a52.485,52.485,0,0,1-18.315-8.778l-2.373-1.781-1.325,2.651a13.588,13.588,0,0,0-1.283,8.008l-1.228-.175a45.954,45.954,0,0,1-20.027-8.009V31.367h-4.949V43.993a12.276,12.276,0,0,0-4.95,2.286V36.318a32.346,32.346,0,0,1,18.388-29.08l-2.125-4.473a37.322,37.322,0,0,0-21.216,33.554v19.8a12.349,12.349,0,0,0,10.917,12.227,27.272,27.272,0,0,0,8.885,13.709v6.932l-25.28,8.428a17.3,17.3,0,0,0-11.849,16.435v19h108.907v-19A17.3,17.3,0,0,0-2922.712,97.417ZM-2945.9,94.9l-3.772,18.857-11.834-8.453,11.7-11.7Zm12.758-38.782a7.413,7.413,0,0,1-5.055,7c.052-.681.1-1.359.1-2.052V49.148A7.418,7.418,0,0,1-2933.142,56.118Zm-64.355,0a7.418,7.418,0,0,1,4.951-6.971V61.069c0,.693.052,1.371.1,2.052A7.413,7.413,0,0,1-2997.5,56.118Zm9.9,4.951V43.428a50.887,50.887,0,0,0,19.325,6.989l9.753,1.391-2.114-4.224a8.6,8.6,0,0,1-.848-4.809,57.427,57.427,0,0,0,18.435,7.856V61.069a22.3,22.3,0,0,1-22.276,22.276A22.3,22.3,0,0,1-2987.6,61.069Zm22.276,27.227a27.048,27.048,0,0,0,12.375-3v4.455l-12.375,12.375-12.375-12.375V85.291A27.046,27.046,0,0,0-2965.319,88.3Zm-15.52,5.306,11.7,11.7-11.832,8.453-3.773-18.857Zm65.023,34.3h-14.852V118h-4.949v9.9h-59.4V118h-4.949v9.9h-14.852V113.849a12.359,12.359,0,0,1,8.463-11.739l16.887-5.629,5.151,25.757,19-13.574,19,13.574,5.151-25.757,16.887,5.629a12.361,12.361,0,0,1,8.463,11.739Z" transform="translate(3042.049 20.612)" fill="#0d4be3"/><ellipse cx="2.475" cy="2.475" rx="2.475" ry="2.475" transform="translate(61.879 71.78)" fill="#0d4be3"/><ellipse cx="2.475" cy="2.475" rx="2.475" ry="2.475" transform="translate(86.63 71.78)" fill="#0d4be3"/><path d="M-2944.278-11.1a12.39,12.39,0,0,0-12.375,12.377V6.228h4.949V1.278a7.435,7.435,0,0,1,7.426-7.426,7.435,7.435,0,0,1,7.426,7.426V2.755a7.437,7.437,0,0,1-1.627,4.639l-8.274,10.341v8.294h4.95V19.472l7.188-8.984a12.409,12.409,0,0,0,2.713-7.733V1.278A12.391,12.391,0,0,0-2944.278-11.1Z" transform="translate(3085.361 11.099)" fill="#0d4be3"/><rect width="4.95" height="4.95" transform="translate(138.608 42.078)" fill="#0d4be3"/><path d="M-2950.149,18.259a12.391,12.391,0,0,0-12.376,12.377v4.949h4.95V30.636a7.435,7.435,0,0,1,7.426-7.426,7.435,7.435,0,0,1,7.425,7.426v1.477a7.448,7.448,0,0,1-1.626,4.639l-8.274,10.341v8.294h4.949V48.83l7.188-8.984a12.41,12.41,0,0,0,2.713-7.733V30.636A12.39,12.39,0,0,0-2950.149,18.259Z" transform="translate(3081.332 31.244)" fill="#0d4be3"/><rect width="4.95" height="4.95" transform="translate(128.708 91.581)" fill="#0d4be3"/><path d="M-2989.869,1.278a7.435,7.435,0,0,1,7.426-7.426,7.435,7.435,0,0,1,7.426,7.426V2.755a7.435,7.435,0,0,1-1.628,4.639l-8.274,10.341v8.294h4.951V19.472l7.188-8.984a12.416,12.416,0,0,0,2.712-7.733V1.278A12.39,12.39,0,0,0-2982.443-11.1a12.39,12.39,0,0,0-12.375,12.377V6.228h4.949Z" transform="translate(3059.173 11.099)" fill="#0d4be3"/><rect width="4.95" height="4.95" transform="translate(74.255 42.078)" fill="#0d4be3"/><path d="M-3022.161,1.278a7.435,7.435,0,0,1,7.424-7.426,7.435,7.435,0,0,1,7.426,7.426V2.755a7.44,7.44,0,0,1-1.626,4.639l-8.274,10.341v8.294h4.949V19.472l7.188-8.984a12.408,12.408,0,0,0,2.713-7.733V1.278A12.391,12.391,0,0,0-3014.737-11.1a12.39,12.39,0,0,0-12.375,12.377V6.228h4.951Z" transform="translate(3037.013 11.099)" fill="#0d4be3"/><rect width="4.95" height="4.95" transform="translate(19.802 42.078)" fill="#0d4be3"/><path d="M-3008.232,30.636a12.39,12.39,0,0,0-12.375-12.377,12.391,12.391,0,0,0-12.376,12.377v4.949h4.95V30.636a7.435,7.435,0,0,1,7.426-7.426,7.435,7.435,0,0,1,7.426,7.426v1.477a7.449,7.449,0,0,1-1.627,4.639l-8.274,10.341v8.294h4.951V48.83l7.186-8.984a12.411,12.411,0,0,0,2.714-7.733Z" transform="translate(3032.984 31.244)" fill="#0d4be3"/><rect width="4.95" height="4.95" transform="translate(9.901 91.581)" fill="#0d4be3"/></g></svg>