<svg xmlns="http://www.w3.org/2000/svg" width="100%" height="100%" viewBox="0 0 379.125 395.44"><g transform="translate(6206.367 -1128.688)"><path d="M-6157.158,1348.387c-30.622-8.736-48.417-21.893-48.417-21.893,0,54.391,21.129,103.633,55.29,139.277,0,0,3.668-22.439,19.405-51.213A150.788,150.788,0,0,1-6157.158,1348.387Z" fill="none" stroke="#fff" stroke-miterlimit="10" stroke-width="0.941" stroke-dasharray="3.764"/><path d="M-6037.786,1180.045c8.373-31.952,20.982-50.52,20.982-50.52-52.128,0-99.32,22.047-133.481,57.691,0,0,21.5,3.827,49.081,20.247A138.069,138.069,0,0,1-6037.786,1180.045Z" fill="none" stroke="#fff" stroke-miterlimit="10" stroke-width="0.941" stroke-dasharray="3.764"/><path d="M-6130.88,1238.429c-15.738-28.775-19.405-51.212-19.405-51.213-34.161,35.644-55.29,84.886-55.29,139.278,0,0,17.8-13.157,48.417-21.893A150.787,150.787,0,0,1-6130.88,1238.429Z" fill="none" stroke="#fff" stroke-miterlimit="10" stroke-width="0.941" stroke-dasharray="3.764"/><path d="M-6101.2,1445.524c-27.576,16.42-49.08,20.247-49.081,20.247,34.161,35.644,81.353,57.691,133.481,57.691,0,0-12.61-18.568-20.982-50.519A138.081,138.081,0,0,1-6101.2,1445.524Z" fill="none" stroke="#fff" stroke-miterlimit="10" stroke-width="0.941" stroke-dasharray="3.764"/><path d="M-5932.4,1207.463c27.577-16.42,49.081-20.247,49.081-20.247s-3.667,22.438-19.4,51.213a150.791,150.791,0,0,1,26.277,66.172c30.622,8.736,48.417,21.893,48.417,21.893h0c0-108.783-84.516-196.969-188.771-196.969,0,0,12.609,18.568,20.982,50.52A138.069,138.069,0,0,1-5932.4,1207.463Z" fill="none" stroke="#fff" stroke-miterlimit="10" stroke-width="0.941" stroke-dasharray="3.764"/><path d="M-5995.822,1472.943c-8.372,31.951-20.981,50.518-20.982,50.519,52.128,0,99.32-22.047,133.481-57.691,0,0-21.5-3.827-49.081-20.247A138.081,138.081,0,0,1-5995.822,1472.943Z" fill="none" stroke="#fff" stroke-miterlimit="10" stroke-width="0.941" stroke-dasharray="3.764"/><path d="M-5902.727,1414.558c15.736,28.774,19.4,51.211,19.4,51.213,34.161-35.644,55.29-84.886,55.29-139.277,0,0-17.795,13.157-48.417,21.893A150.791,150.791,0,0,1-5902.727,1414.558Z" fill="none" stroke="#fff" stroke-miterlimit="10" stroke-width="0.941" stroke-dasharray="3.764"/><path d="M-5924.815,1271.225A112.747,112.747,0,0,1-5914.3,1297.7a197.9,197.9,0,0,1,37.851,6.9,150.791,150.791,0,0,0-26.277-66.172A214.973,214.973,0,0,1-5924.815,1271.225Z" fill="none" stroke="#fff" stroke-miterlimit="10" stroke-width="0.941" stroke-dasharray="3.764"/><path d="M-6108.793,1271.225a214.89,214.89,0,0,1-22.087-32.8,150.787,150.787,0,0,0-26.278,66.172,197.91,197.91,0,0,1,37.851-6.9A112.747,112.747,0,0,1-6108.793,1271.225Z" fill="none" stroke="#fff" stroke-miterlimit="10" stroke-width="0.941" stroke-dasharray="3.764"/><path d="M-6069.772,1422.478a205.91,205.91,0,0,1-31.432,23.046,138.081,138.081,0,0,0,63.418,27.419,223.063,223.063,0,0,1-6.61-39.495A103.078,103.078,0,0,1-6069.772,1422.478Z" fill="none" stroke="#fff" stroke-miterlimit="10" stroke-width="0.941" stroke-dasharray="3.764"/><path d="M-6044.4,1219.539a223.032,223.032,0,0,1,6.61-39.494,138.069,138.069,0,0,0-63.418,27.418,205.838,205.838,0,0,1,31.432,23.047A103.134,103.134,0,0,1-6044.4,1219.539Z" fill="none" stroke="#fff" stroke-miterlimit="10" stroke-width="0.941" stroke-dasharray="3.764"/><path d="M-5989.212,1433.448a223.063,223.063,0,0,1-6.61,39.495,138.081,138.081,0,0,0,63.418-27.419,205.91,205.91,0,0,1-31.432-23.046A103.078,103.078,0,0,1-5989.212,1433.448Z" fill="none" stroke="#fff" stroke-miterlimit="10" stroke-width="0.941" stroke-dasharray="3.764"/><path d="M-5963.836,1230.51a205.838,205.838,0,0,1,31.432-23.047,138.069,138.069,0,0,0-63.418-27.418,223.032,223.032,0,0,1,6.61,39.494A103.118,103.118,0,0,1-5963.836,1230.51Z" fill="none" stroke="#fff" stroke-miterlimit="10" stroke-width="0.941" stroke-dasharray="3.764"/><path d="M-6119.307,1355.283a197.914,197.914,0,0,1-37.851-6.9,150.788,150.788,0,0,0,26.278,66.171,214.9,214.9,0,0,1,22.087-32.8A112.747,112.747,0,0,1-6119.307,1355.283Z" fill="none" stroke="#fff" stroke-miterlimit="10" stroke-width="0.941" stroke-dasharray="3.764"/><path d="M-5924.815,1381.762a214.985,214.985,0,0,1,22.088,32.8,150.791,150.791,0,0,0,26.277-66.171,197.9,197.9,0,0,1-37.851,6.9A112.747,112.747,0,0,1-5924.815,1381.762Z" fill="none" stroke="#fff" stroke-miterlimit="10" stroke-width="0.941" stroke-dasharray="3.764"/><path d="M-5990.041,1259.076l.571-1.438-.571,1.438Z" fill="none" stroke="#fff" stroke-miterlimit="10" stroke-width="0.941" stroke-dasharray="3.764"/><path d="M-6044.138,1257.638a230.66,230.66,0,0,1-.258-38.1,103.134,103.134,0,0,0-25.376,10.971A216.754,216.754,0,0,1-6044.138,1257.638Z" fill="none" stroke="#fff" stroke-miterlimit="10" stroke-width="0.941" stroke-dasharray="3.764"/><path d="M-5950.814,1297.973l-1.378.595h0l1.378-.595a202.971,202.971,0,0,1,36.513-.269,112.747,112.747,0,0,0-10.514-26.479A216.456,216.456,0,0,1-5950.814,1297.973Z" fill="none" stroke="#fff" stroke-miterlimit="10" stroke-width="0.941" stroke-dasharray="3.764"/><path d="M-6082.794,1297.973a216.421,216.421,0,0,1-26-26.748,112.747,112.747,0,0,0-10.514,26.479A202.971,202.971,0,0,1-6082.794,1297.973Z" fill="none" stroke="#fff" stroke-miterlimit="10" stroke-width="0.941" stroke-dasharray="3.764"/><path d="M-6082.794,1355.014l1.378-.6h0Z" fill="none" stroke="#fff" stroke-miterlimit="10" stroke-width="0.941" stroke-dasharray="3.764"/><path d="M-5950.814,1355.014a216.447,216.447,0,0,1,26,26.748,112.747,112.747,0,0,0,10.514-26.479A202.97,202.97,0,0,1-5950.814,1355.014Z" fill="none" stroke="#fff" stroke-miterlimit="10" stroke-width="0.941" stroke-dasharray="3.764"/><path d="M-5989.47,1395.349a230.663,230.663,0,0,1,.258,38.1,103.078,103.078,0,0,0,25.376-10.97A216.865,216.865,0,0,1-5989.47,1395.349Z" fill="none" stroke="#fff" stroke-miterlimit="10" stroke-width="0.941" stroke-dasharray="3.764"/><path d="M-6082.794,1355.014l1.378-.6h0l-1.378.6a202.971,202.971,0,0,1-36.513.269,112.747,112.747,0,0,0,10.514,26.479A216.482,216.482,0,0,1-6082.794,1355.014Z" fill="none" stroke="#fff" stroke-miterlimit="10" stroke-width="0.941" stroke-dasharray="3.764"/><path d="M-6044.138,1395.349l.571-1.438h0l-.571,1.438a216.827,216.827,0,0,1-25.634,27.129,103.078,103.078,0,0,0,25.376,10.97A230.66,230.66,0,0,1-6044.138,1395.349Z" fill="none" stroke="#fff" stroke-miterlimit="10" stroke-width="0.941" stroke-dasharray="3.764"/><path d="M-5989.47,1257.638a216.792,216.792,0,0,1,25.634-27.128,103.118,103.118,0,0,0-25.376-10.971A230.663,230.663,0,0,1-5989.47,1257.638Z" fill="none" stroke="#fff" stroke-miterlimit="10" stroke-width="0.941" stroke-dasharray="3.764"/><path d="M-6016.8,1326.494h0l26.763-67.417h0Z" fill="none" stroke="#fff" stroke-miterlimit="10" stroke-width="0.941" stroke-dasharray="3.764"/><path d="M-6016.8,1326.494Z" fill="none" stroke="#fff" stroke-miterlimit="10" stroke-width="0.941" stroke-dasharray="3.764"/><path d="M-6016.8,1326.494l64.612-27.925h0l-64.612,27.925Z" fill="none" stroke="#fff" stroke-miterlimit="10" stroke-width="0.941" stroke-dasharray="3.764"/><path d="M-6043.567,1393.911h0l26.763-67.417Z" fill="none" stroke="#fff" stroke-miterlimit="10" stroke-width="0.941" stroke-dasharray="3.764"/><path d="M-6016.8,1326.494l-64.611,27.925h0l64.611-27.925Z" fill="none" stroke="#fff" stroke-miterlimit="10" stroke-width="0.941" stroke-dasharray="3.764"/><path d="M-6016.8,1326.494Z" fill="none" stroke="#fff" stroke-miterlimit="10" stroke-width="0.941" stroke-dasharray="3.764"/><path d="M-6016.8,1326.494Z" fill="none" stroke="#fff" stroke-miterlimit="10" stroke-width="0.941" stroke-dasharray="3.764"/><path d="M-6016.8,1326.494Z" fill="none" stroke="#fff" stroke-miterlimit="10" stroke-width="0.941" stroke-dasharray="3.764"/><path d="M-6016.8,1326.494Z" fill="none" stroke="#fff" stroke-miterlimit="10" stroke-width="0.941" stroke-dasharray="3.764"/><path d="M-6016.8,1326.494l-64.611,27.925h0l64.611-27.925Z" fill="none" stroke="#fff" stroke-miterlimit="10" stroke-width="0.941" stroke-dasharray="3.764"/><rect transform="translate(-6016.804 1326.494)" fill="none" stroke="#fff" stroke-miterlimit="10" stroke-width="0.941" stroke-dasharray="3.764"/><path d="M-6158.7,1326.494a155.637,155.637,0,0,1,1.543-21.893c-30.622,8.736-48.417,21.893-48.417,21.893s17.8,13.157,48.417,21.893A155.656,155.656,0,0,1-6158.7,1326.494Z" fill="#f5d3d3" stroke="#fff" stroke-miterlimit="10" stroke-width="0.941" stroke-dasharray="3.764"/><path d="M-6122.937,1326.494a115.4,115.4,0,0,1,3.63-28.79,197.91,197.91,0,0,0-37.851,6.9,155.637,155.637,0,0,0-1.543,21.893,155.656,155.656,0,0,0,1.543,21.893,197.914,197.914,0,0,0,37.851,6.9A115.391,115.391,0,0,1-6122.937,1326.494Z" fill="#eca9a8" stroke="#fff" stroke-miterlimit="10" stroke-width="0.941" stroke-dasharray="3.764"/><path d="M-6082.794,1355.014l1.378-.6a75.494,75.494,0,0,1-5.309-27.925,75.5,75.5,0,0,1,5.309-27.926l-1.378-.595a202.971,202.971,0,0,0-36.513-.269,115.4,115.4,0,0,0-3.63,28.79,115.391,115.391,0,0,0,3.63,28.789A202.971,202.971,0,0,0-6082.794,1355.014Z" fill="#d53f40" stroke="#fff" stroke-miterlimit="10" stroke-width="0.941" stroke-dasharray="3.764"/><path d="M-6081.416,1298.568a75.5,75.5,0,0,0-5.309,27.926,75.494,75.494,0,0,0,5.309,27.925l64.612-27.925Z" fill="#b53939" stroke="#fff" stroke-miterlimit="10" stroke-width="0.941" stroke-dasharray="3.764"/><path d="M-6150.285,1187.216Z" fill="none" stroke="#fff" stroke-miterlimit="10" stroke-width="0.941" stroke-dasharray="3.764"/><path d="M-6101.2,1207.463c-27.577-16.42-49.08-20.247-49.081-20.247h0s3.667,22.438,19.405,51.213A145.978,145.978,0,0,1-6101.2,1207.463Z" fill="#f6e4d3" stroke="#fff" stroke-miterlimit="10" stroke-width="0.941" stroke-dasharray="3.764"/><path d="M-6069.772,1230.51a205.838,205.838,0,0,0-31.432-23.047,145.978,145.978,0,0,0-29.676,30.966,214.89,214.89,0,0,0,22.087,32.8A109.071,109.071,0,0,1-6069.772,1230.51Z" fill="#ecc9a9" stroke="#fff" stroke-miterlimit="10" stroke-width="0.941" stroke-dasharray="3.764"/><path d="M-6082.794,1297.973l1.378.595a71.757,71.757,0,0,1,37.849-39.492l-.571-1.438a216.754,216.754,0,0,0-25.634-27.128,109.071,109.071,0,0,0-39.021,40.715A216.421,216.421,0,0,0-6082.794,1297.973Z" fill="#e3b07f" stroke="#fff" stroke-miterlimit="10" stroke-width="0.941" stroke-dasharray="3.764"/><path d="M-6082.794,1297.973l1.378.6h0Z" fill="none" stroke="#fff" stroke-miterlimit="10" stroke-width="0.941" stroke-dasharray="3.764"/><path d="M-6043.567,1259.076a71.757,71.757,0,0,0-37.849,39.492l64.612,27.926Z" fill="#d58940" stroke="#fff" stroke-miterlimit="10" stroke-width="0.941" stroke-dasharray="3.764"/><path d="M-6016.8,1326.494l-64.611-27.925h0l64.611,27.925Z" fill="none" stroke="#fff" stroke-miterlimit="10" stroke-width="0.941" stroke-dasharray="3.764"/><path d="M-6016.8,1178.434a137.186,137.186,0,0,1,20.982,1.611c-8.373-31.952-20.982-50.52-20.982-50.52s-12.609,18.568-20.982,50.52A137.185,137.185,0,0,1-6016.8,1178.434Z" fill="#f7f9e5" stroke="#fff" stroke-miterlimit="10" stroke-width="0.941" stroke-dasharray="3.764"/><path d="M-6016.8,1215.751a102.119,102.119,0,0,1,27.592,3.788,223.032,223.032,0,0,0-6.61-39.494,137.186,137.186,0,0,0-20.982-1.611,137.185,137.185,0,0,0-20.982,1.611,223.032,223.032,0,0,0-6.61,39.494A102.116,102.116,0,0,1-6016.8,1215.751Z" fill="#f2f2c5" stroke="#fff" stroke-miterlimit="10" stroke-width="0.941" stroke-dasharray="3.764"/><path d="M-6044.138,1257.638l.571,1.438a67.195,67.195,0,0,1,26.763-5.54,67.2,67.2,0,0,1,26.763,5.54l.571-1.438a230.663,230.663,0,0,0,.258-38.1,102.119,102.119,0,0,0-27.592-3.788,102.116,102.116,0,0,0-27.592,3.788A230.66,230.66,0,0,0-6044.138,1257.638Z" fill="#e3e37f" stroke="#fff" stroke-miterlimit="10" stroke-width="0.941" stroke-dasharray="3.764"/><path d="M-6016.8,1326.494l26.763-67.418a67.2,67.2,0,0,0-26.763-5.54,67.195,67.195,0,0,0-26.763,5.54l26.763,67.418Z" fill="#e4d47f" stroke="#fff" stroke-miterlimit="10" stroke-width="0.941" stroke-dasharray="3.764"/><path d="M-6016.8,1326.494Z" fill="none" stroke="#fff" stroke-miterlimit="10" stroke-width="0.941" stroke-dasharray="3.764"/><path d="M-5902.727,1238.429c15.737-28.775,19.4-51.213,19.4-51.213s-21.5,3.827-49.081,20.247A146.006,146.006,0,0,1-5902.727,1238.429Z" fill="#d3f4d3" stroke="#fff" stroke-miterlimit="10" stroke-width="0.941" stroke-dasharray="3.764"/><path d="M-5924.815,1271.225a214.973,214.973,0,0,0,22.088-32.8,146.006,146.006,0,0,0-29.677-30.966,205.838,205.838,0,0,0-31.432,23.047A109.071,109.071,0,0,1-5924.815,1271.225Z" fill="#a8eca9" stroke="#fff" stroke-miterlimit="10" stroke-width="0.941" stroke-dasharray="3.764"/><path d="M-5950.814,1297.973l-1.378.6h0Z" fill="none" stroke="#fff" stroke-miterlimit="10" stroke-width="0.941" stroke-dasharray="3.764"/><path d="M-5963.836,1230.51a216.792,216.792,0,0,0-25.634,27.128l-.571,1.438a71.755,71.755,0,0,1,37.849,39.492l1.378-.595a216.456,216.456,0,0,0,26-26.748A109.071,109.071,0,0,0-5963.836,1230.51Z" fill="#7fe280" stroke="#fff" stroke-miterlimit="10" stroke-width="0.941" stroke-dasharray="3.764"/><path d="M-6016.8,1326.494l64.612-27.925h0l-64.612,27.925Z" fill="none" stroke="#fff" stroke-miterlimit="10" stroke-width="0.941" stroke-dasharray="3.764"/><path d="M-6016.8,1326.494l64.612-27.926a71.755,71.755,0,0,0-37.849-39.492l-26.763,67.418Z" fill="#329c33" stroke="#fff" stroke-miterlimit="10" stroke-width="0.941" stroke-dasharray="3.764"/><path d="M-6016.8,1326.494h0Z" fill="none" stroke="#fff" stroke-miterlimit="10" stroke-width="0.941" stroke-dasharray="3.764"/><path d="M-6016.8,1326.494h0Z" fill="none" stroke="#fff" stroke-miterlimit="10" stroke-width="0.941" stroke-dasharray="3.764"/><path d="M-6016.8,1326.494Z" fill="none" stroke="#fff" stroke-miterlimit="10" stroke-width="0.941" stroke-dasharray="3.764"/><path d="M-5828.033,1326.494Z" fill="none" stroke="#fff" stroke-miterlimit="10" stroke-width="0.941" stroke-dasharray="3.764"/><path d="M-5876.45,1304.6a155.564,155.564,0,0,1,1.543,21.893,155.583,155.583,0,0,1-1.543,21.893c30.622-8.736,48.417-21.893,48.417-21.893h0S-5845.828,1313.337-5876.45,1304.6Z" fill="#cfe0cf" stroke="#fff" stroke-miterlimit="10" stroke-width="0.941" stroke-dasharray="3.764"/><path d="M-5910.67,1326.494a115.391,115.391,0,0,1-3.631,28.789,197.9,197.9,0,0,0,37.851-6.9,155.583,155.583,0,0,0,1.543-21.893,155.564,155.564,0,0,0-1.543-21.893,197.9,197.9,0,0,0-37.851-6.9A115.4,115.4,0,0,1-5910.67,1326.494Z" fill="#9fc19f" stroke="#fff" stroke-miterlimit="10" stroke-width="0.941" stroke-dasharray="3.764"/><path d="M-5950.814,1297.973l-1.378.595a75.5,75.5,0,0,1,5.309,27.926,75.494,75.494,0,0,1-5.309,27.925l1.378.6-1.378-.6h0l1.378.6a202.97,202.97,0,0,0,36.513.269,115.391,115.391,0,0,0,3.631-28.789,115.4,115.4,0,0,0-3.631-28.79A202.971,202.971,0,0,0-5950.814,1297.973Z" fill="#2f862e" stroke="#fff" stroke-miterlimit="10" stroke-width="0.941" stroke-dasharray="3.764"/><path d="M-5952.192,1354.419a75.494,75.494,0,0,0,5.309-27.925,75.5,75.5,0,0,0-5.309-27.926l-64.612,27.926Z" fill="#2a762b" stroke="#fff" stroke-miterlimit="10" stroke-width="0.941" stroke-dasharray="3.764"/><path d="M-6016.8,1326.494h0l64.612,27.925h0l-64.612-27.925Z" fill="none" stroke="#fff" stroke-miterlimit="10" stroke-width="0.941" stroke-dasharray="3.764"/><path d="M-6016.8,1326.494Z" fill="none" stroke="#fff" stroke-miterlimit="10" stroke-width="0.941" stroke-dasharray="3.764"/><path d="M-5883.323,1465.771Z" fill="none" stroke="#fff" stroke-miterlimit="10" stroke-width="0.941" stroke-dasharray="3.764"/><path d="M-5932.4,1445.524c27.576,16.42,49.08,20.247,49.081,20.247h0s-3.668-22.439-19.4-51.213A146.01,146.01,0,0,1-5932.4,1445.524Z" fill="#e0eef8" stroke="#fff" stroke-miterlimit="10" stroke-width="0.941" stroke-dasharray="3.764"/><path d="M-5963.836,1422.478a205.91,205.91,0,0,0,31.432,23.046,146.01,146.01,0,0,0,29.677-30.966,214.985,214.985,0,0,0-22.088-32.8A109.082,109.082,0,0,1-5963.836,1422.478Z" fill="#bbdaf0" stroke="#fff" stroke-miterlimit="10" stroke-width="0.941" stroke-dasharray="3.764"/><path d="M-5950.814,1355.014l-1.378-.6a71.756,71.756,0,0,1-37.849,39.492l.571,1.438-.571-1.438h0l.571,1.438a216.865,216.865,0,0,0,25.634,27.129,109.082,109.082,0,0,0,39.021-40.716A216.447,216.447,0,0,0-5950.814,1355.014Z" fill="#83bce3" stroke="#fff" stroke-miterlimit="10" stroke-width="0.941" stroke-dasharray="3.764"/><path d="M-5990.041,1393.911a71.756,71.756,0,0,0,37.849-39.492l-64.612-27.925Z" fill="#3b8abd" stroke="#fff" stroke-miterlimit="10" stroke-width="0.941" stroke-dasharray="3.764"/><path d="M-6016.8,1326.494l26.763,67.417h0l-26.763-67.417Z" fill="none" stroke="#fff" stroke-miterlimit="10" stroke-width="0.941" stroke-dasharray="3.764"/><rect transform="translate(-6016.804 1523.462)" fill="none" stroke="#fff" stroke-miterlimit="10" stroke-width="0.941" stroke-dasharray="3.764"/><path d="M-6016.8,1474.553a137.2,137.2,0,0,1-20.982-1.61c8.372,31.951,20.981,50.518,20.982,50.519h0s12.61-18.568,20.982-50.519A137.2,137.2,0,0,1-6016.8,1474.553Z" fill="#d4d2f5" stroke="#fff" stroke-miterlimit="10" stroke-width="0.941" stroke-dasharray="3.764"/><path d="M-6016.8,1437.236a102.116,102.116,0,0,1-27.592-3.788,223.063,223.063,0,0,0,6.61,39.495,137.2,137.2,0,0,0,20.982,1.61,137.2,137.2,0,0,0,20.982-1.61,223.063,223.063,0,0,0,6.61-39.495A102.119,102.119,0,0,1-6016.8,1437.236Z" fill="#a9a9ec" stroke="#fff" stroke-miterlimit="10" stroke-width="0.941" stroke-dasharray="3.764"/><path d="M-5989.47,1395.349l-.571-1.438a67.2,67.2,0,0,1-26.763,5.54,67.195,67.195,0,0,1-26.763-5.54l-.571,1.438a230.66,230.66,0,0,0-.258,38.1,102.116,102.116,0,0,0,27.592,3.788,102.119,102.119,0,0,0,27.592-3.788A230.663,230.663,0,0,0-5989.47,1395.349Z" fill="#7c7ce2" stroke="#fff" stroke-miterlimit="10" stroke-width="0.941" stroke-dasharray="3.764"/><path d="M-6043.567,1393.911a67.195,67.195,0,0,0,26.763,5.54,67.2,67.2,0,0,0,26.763-5.54l-26.763-67.417Z" fill="#3737ab" stroke="#fff" stroke-miterlimit="10" stroke-width="0.941" stroke-dasharray="3.764"/><path d="M-6150.285,1465.771Z" fill="none" stroke="#fff" stroke-miterlimit="10" stroke-width="0.941" stroke-dasharray="3.764"/><path d="M-6130.88,1414.558c-15.737,28.774-19.405,51.211-19.405,51.213h0s21.505-3.827,49.081-20.247A145.981,145.981,0,0,1-6130.88,1414.558Z" fill="#fae9fa" stroke="#fff" stroke-miterlimit="10" stroke-width="0.941" stroke-dasharray="3.764"/><path d="M-6108.793,1381.762a214.9,214.9,0,0,0-22.087,32.8,145.981,145.981,0,0,0,29.676,30.966,205.91,205.91,0,0,0,31.432-23.046A109.082,109.082,0,0,1-6108.793,1381.762Z" fill="#f5d4f5" stroke="#fff" stroke-miterlimit="10" stroke-width="0.941" stroke-dasharray="3.764"/><path d="M-6044.138,1395.349l.571-1.438h0l-.571,1.438.571-1.438a71.754,71.754,0,0,1-37.849-39.492l-1.378.6a216.482,216.482,0,0,0-26,26.748,109.082,109.082,0,0,0,39.021,40.716A216.827,216.827,0,0,0-6044.138,1395.349Z" fill="#e37fe3" stroke="#fff" stroke-miterlimit="10" stroke-width="0.941" stroke-dasharray="3.764"/><path d="M-6016.8,1326.494l-26.763,67.417h0l26.763-67.417Z" fill="none" stroke="#fff" stroke-miterlimit="10" stroke-width="0.941" stroke-dasharray="3.764"/><path d="M-6081.416,1354.419a71.754,71.754,0,0,0,37.849,39.492l26.763-67.417Z" fill="#bb3bbb" stroke="#fff" stroke-miterlimit="10" stroke-width="0.941" stroke-dasharray="3.764"/><text transform="translate(-6087.473 1173.18)" fill="#fff" font-size="7.689" font-family="Helvetica"><tspan x="-18.371" y="0">Optimismo</tspan></text><text transform="translate(-6016.805 1198.983)" fill="#fff" font-size="7.689" font-family="Helvetica"><tspan x="-17.528" y="0">Serenidad</tspan></text><text transform="translate(-6103.433 1237.412)" fill="#fff" font-size="7.689" font-family="Helvetica"><tspan x="-11.753" y="0">Interés</tspan></text><text transform="translate(-5930.212 1237.412)" fill="#fff" font-size="7.689" font-family="Helvetica"><tspan x="-19.45" y="0">Aprobación</tspan></text><text transform="translate(-5960.5 1260.034)" fill="#fff" font-size="7.689" font-family="Helvetica"><tspan x="-17.312" y="0">Confianza</tspan></text><text transform="translate(-6073.111 1260.034)" fill="#fff" font-size="7.689" font-family="Helvetica"><tspan x="-20.73" y="0">Anticipación</tspan></text><text transform="translate(-6073.111 1397.526)" fill="#fff" font-size="7.689" font-family="Helvetica"><tspan x="-14.89" y="0">Aversión</tspan></text><text transform="translate(-6105.582 1419.232)" fill="#fff" font-size="7.689" font-family="Helvetica"><tspan x="-9.191" y="0">Tedio</tspan></text><text transform="translate(-5928.983 1419.232)" fill="#fff" font-size="7.689" font-family="Helvetica"><tspan x="-19.015" y="0">Distracción</tspan></text><text transform="translate(-5957.429 1397.526)" fill="#fff" font-size="7.689" font-family="Helvetica"><tspan x="-15.6" y="0">Sorpresa</tspan></text><text transform="translate(-6016.805 1237.412)" fill="#fff" font-size="7.689" font-family="Helvetica"><tspan x="-12.181" y="0">Alegría</tspan></text><text transform="translate(-6016.805 1276.18)" fill="#fff" font-size="7.689" font-family="Helvetica"><tspan x="-12.392" y="0">Extasis</tspan></text><text transform="translate(-6016.805 1381.469)" fill="#fff" font-size="7.689" font-family="Helvetica"><tspan x="-8.979" y="0">Pena</tspan></text><text transform="translate(-6016.805 1419.232)" fill="#fff" font-size="7.689" font-family="Helvetica"><tspan x="-13.531" y="0">Tristeza</tspan></text><text transform="translate(-6016.805 1457.199)" fill="#fff" font-size="7.689" font-family="Helvetica"><tspan x="-18.592" y="0">Melancolía</tspan></text><text transform="translate(-6053.293 1297.268)" fill="#fff" font-size="7.689" font-family="Helvetica"><tspan x="-16.388" y="0">Vigilancia</tspan></text><text transform="translate(-6053.293 1362.97)" fill="#fff" font-size="7.689" font-family="Helvetica"><tspan x="-8.121" y="0">Odio</tspan></text><text transform="translate(-5979.029 1362.97)" fill="#fff" font-size="7.689" font-family="Helvetica"><tspan x="-15.384" y="0">Asombro</tspan></text><text transform="translate(-6062.855 1328.807)" fill="#fff" font-size="7.689" font-family="Helvetica"><tspan x="-8.759" y="0">Furia</tspan></text><text transform="translate(-5976.041 1328.807)" fill="#fff" font-size="7.689" font-family="Helvetica"><tspan x="-10.039" y="0">Terror</tspan></text><text transform="translate(-5928.903 1328.807)" fill="#fff" font-size="7.689" font-family="Helvetica"><tspan x="-10.471" y="0">Miedo</tspan></text><text transform="translate(-5892.148 1328.807)" fill="#fff" font-size="7.689" font-family="Helvetica"><tspan x="-10.681" y="0">Temor</tspan></text><text transform="translate(-6104.047 1328.807)" fill="#fff" font-size="7.689" font-family="Helvetica"><tspan x="-4.487" y="0">Ira</tspan></text><text transform="translate(-6141.154 1328.807)" fill="#fff" font-size="7.689" font-family="Helvetica"><tspan x="-12.185" y="0">Enfado</tspan></text><text transform="translate(-5979.11 1297.268)" fill="#fff" font-size="7.689" font-family="Helvetica"><tspan x="-19.23" y="0">Admiración</tspan></text><text transform="translate(-6171.439 1271.222)" fill="#fff" font-size="7.689" font-family="Helvetica"><tspan x="-14.746" y="0">Alevosía</tspan></text><text transform="translate(-6169.333 1393.909)" fill="#fff" font-size="7.689" font-family="Helvetica"><tspan x="-17.308" y="0">Desprecio</tspan></text><text transform="translate(-6083.546 1484.49)" fill="#fff" font-size="7.689" font-family="Helvetica"><tspan x="-26.067" y="0">Remordimiento</tspan></text><text transform="translate(-5946.884 1484.49)" fill="#fff" font-size="7.689" font-family="Helvetica"><tspan x="-18.166" y="0">Decepción</tspan></text><text transform="translate(-5864.759 1393.909)" fill="#fff" font-size="7.689" font-family="Helvetica"><tspan x="-9.831" y="0">Susto</tspan></text><text transform="translate(-5862.478 1271.222)" fill="#fff" font-size="7.689" font-family="Helvetica"><tspan x="-15.812" y="0">Sumisión</tspan></text><text transform="translate(-5952.479 1173.18)" fill="#fff" font-size="7.689" font-family="Helvetica"><tspan x="-9.185" y="0">Amor</tspan></text></g></svg>