<svg xmlns="http://www.w3.org/2000/svg" width="100%" height="100%" viewBox="0 0 379.125 395.44"><g transform="translate(5756.142 -1128.688)"><path d="M-5706.933,1348.387c-30.622-8.736-48.417-21.893-48.417-21.893,0,54.391,21.129,103.633,55.29,139.277,0,0,3.668-22.439,19.4-51.213A150.792,150.792,0,0,1-5706.933,1348.387Z" fill="none" stroke="#fff" stroke-miterlimit="10" stroke-width="0.941" stroke-dasharray="3.764"/><path d="M-5587.561,1180.045c8.372-31.952,20.982-50.52,20.982-50.52-52.128,0-99.321,22.047-133.481,57.691,0,0,21.5,3.827,49.081,20.247A138.067,138.067,0,0,1-5587.561,1180.045Z" fill="none" stroke="#fff" stroke-miterlimit="10" stroke-width="0.941" stroke-dasharray="3.764"/><path d="M-5680.656,1238.429c-15.737-28.775-19.4-51.212-19.4-51.213-34.161,35.644-55.29,84.886-55.29,139.278,0,0,17.795-13.157,48.417-21.893A150.791,150.791,0,0,1-5680.656,1238.429Z" fill="none" stroke="#fff" stroke-miterlimit="10" stroke-width="0.941" stroke-dasharray="3.764"/><path d="M-5650.979,1445.524c-27.577,16.42-49.08,20.247-49.081,20.247,34.16,35.644,81.353,57.691,133.481,57.691,0,0-12.61-18.568-20.982-50.519A138.078,138.078,0,0,1-5650.979,1445.524Z" fill="none" stroke="#fff" stroke-miterlimit="10" stroke-width="0.941" stroke-dasharray="3.764"/><path d="M-5482.18,1207.463c27.578-16.42,49.082-20.247,49.082-20.247s-3.667,22.438-19.4,51.213a150.78,150.78,0,0,1,26.278,66.172c30.622,8.736,48.417,21.893,48.417,21.893h0c0-108.783-84.516-196.969-188.771-196.969,0,0,12.609,18.568,20.982,50.52A138.059,138.059,0,0,1-5482.18,1207.463Z" fill="none" stroke="#fff" stroke-miterlimit="10" stroke-width="0.941" stroke-dasharray="3.764"/><path d="M-5545.6,1472.943c-8.373,31.951-20.981,50.518-20.982,50.519,52.127,0,99.32-22.047,133.481-57.691,0,0-21.5-3.827-49.082-20.247A138.07,138.07,0,0,1-5545.6,1472.943Z" fill="none" stroke="#fff" stroke-miterlimit="10" stroke-width="0.941" stroke-dasharray="3.764"/><path d="M-5452.5,1414.558c15.737,28.774,19.4,51.211,19.4,51.213,34.161-35.644,55.29-84.886,55.29-139.277,0,0-17.795,13.157-48.417,21.893A150.781,150.781,0,0,1-5452.5,1414.558Z" fill="none" stroke="#fff" stroke-miterlimit="10" stroke-width="0.941" stroke-dasharray="3.764"/><path d="M-5474.59,1271.225a112.767,112.767,0,0,1,10.514,26.479,197.9,197.9,0,0,1,37.851,6.9,150.78,150.78,0,0,0-26.278-66.172A214.89,214.89,0,0,1-5474.59,1271.225Z" fill="none" stroke="#fff" stroke-miterlimit="10" stroke-width="0.941" stroke-dasharray="3.764"/><path d="M-5658.569,1271.225a215.034,215.034,0,0,1-22.087-32.8,150.791,150.791,0,0,0-26.277,66.172,197.913,197.913,0,0,1,37.85-6.9A112.831,112.831,0,0,1-5658.569,1271.225Z" fill="none" stroke="#fff" stroke-miterlimit="10" stroke-width="0.941" stroke-dasharray="3.764"/><path d="M-5619.548,1422.478a205.857,205.857,0,0,1-31.431,23.046,138.078,138.078,0,0,0,63.418,27.419,223.018,223.018,0,0,1-6.61-39.495A103.1,103.1,0,0,1-5619.548,1422.478Z" fill="none" stroke="#fff" stroke-miterlimit="10" stroke-width="0.941" stroke-dasharray="3.764"/><path d="M-5594.171,1219.539a222.987,222.987,0,0,1,6.61-39.494,138.067,138.067,0,0,0-63.418,27.418,205.786,205.786,0,0,1,31.431,23.047A103.14,103.14,0,0,1-5594.171,1219.539Z" fill="none" stroke="#fff" stroke-miterlimit="10" stroke-width="0.941" stroke-dasharray="3.764"/><path d="M-5538.987,1433.448a223.15,223.15,0,0,1-6.61,39.495,138.07,138.07,0,0,0,63.417-27.419,205.95,205.95,0,0,1-31.431-23.046A103.11,103.11,0,0,1-5538.987,1433.448Z" fill="none" stroke="#fff" stroke-miterlimit="10" stroke-width="0.941" stroke-dasharray="3.764"/><path d="M-5513.611,1230.51a205.879,205.879,0,0,1,31.431-23.047,138.059,138.059,0,0,0-63.417-27.418,223.119,223.119,0,0,1,6.61,39.494A103.15,103.15,0,0,1-5513.611,1230.51Z" fill="none" stroke="#fff" stroke-miterlimit="10" stroke-width="0.941" stroke-dasharray="3.764"/><path d="M-5669.083,1355.283a197.917,197.917,0,0,1-37.85-6.9,150.792,150.792,0,0,0,26.277,66.171,215.046,215.046,0,0,1,22.087-32.8A112.831,112.831,0,0,1-5669.083,1355.283Z" fill="none" stroke="#fff" stroke-miterlimit="10" stroke-width="0.941" stroke-dasharray="3.764"/><path d="M-5474.59,1381.762a214.9,214.9,0,0,1,22.087,32.8,150.781,150.781,0,0,0,26.278-66.171,197.906,197.906,0,0,1-37.851,6.9A112.767,112.767,0,0,1-5474.59,1381.762Z" fill="none" stroke="#fff" stroke-miterlimit="10" stroke-width="0.941" stroke-dasharray="3.764"/><path d="M-5539.816,1259.076l.571-1.438-.571,1.438Z" fill="none" stroke="#fff" stroke-miterlimit="10" stroke-width="0.941" stroke-dasharray="3.764"/><path d="M-5593.913,1257.638a230.393,230.393,0,0,1-.258-38.1,103.14,103.14,0,0,0-25.377,10.971A216.687,216.687,0,0,1-5593.913,1257.638Z" fill="none" stroke="#fff" stroke-miterlimit="10" stroke-width="0.941" stroke-dasharray="3.764"/><path d="M-5500.589,1297.973l-1.379.595h0l1.379-.595a202.966,202.966,0,0,1,36.513-.269,112.767,112.767,0,0,0-10.514-26.479A216.527,216.527,0,0,1-5500.589,1297.973Z" fill="none" stroke="#fff" stroke-miterlimit="10" stroke-width="0.941" stroke-dasharray="3.764"/><path d="M-5632.569,1297.973a216.467,216.467,0,0,1-26-26.748,112.831,112.831,0,0,0-10.514,26.479A202.982,202.982,0,0,1-5632.569,1297.973Z" fill="none" stroke="#fff" stroke-miterlimit="10" stroke-width="0.941" stroke-dasharray="3.764"/><path d="M-5632.569,1355.014l1.378-.6h0Z" fill="none" stroke="#fff" stroke-miterlimit="10" stroke-width="0.941" stroke-dasharray="3.764"/><path d="M-5500.589,1355.014a216.517,216.517,0,0,1,26,26.748,112.767,112.767,0,0,0,10.514-26.479A202.965,202.965,0,0,1-5500.589,1355.014Z" fill="none" stroke="#fff" stroke-miterlimit="10" stroke-width="0.941" stroke-dasharray="3.764"/><path d="M-5539.245,1395.349a230.663,230.663,0,0,1,.258,38.1,103.11,103.11,0,0,0,25.376-10.97A216.865,216.865,0,0,1-5539.245,1395.349Z" fill="none" stroke="#fff" stroke-miterlimit="10" stroke-width="0.941" stroke-dasharray="3.764"/><path d="M-5632.569,1355.014l1.378-.6h0l-1.378.6a202.981,202.981,0,0,1-36.514.269,112.831,112.831,0,0,0,10.514,26.479A216.458,216.458,0,0,1-5632.569,1355.014Z" fill="none" stroke="#fff" stroke-miterlimit="10" stroke-width="0.941" stroke-dasharray="3.764"/><path d="M-5593.913,1395.349l.571-1.438h0l-.571,1.438a216.76,216.76,0,0,1-25.635,27.129,103.1,103.1,0,0,0,25.377,10.97A230.393,230.393,0,0,1-5593.913,1395.349Z" fill="none" stroke="#fff" stroke-miterlimit="10" stroke-width="0.941" stroke-dasharray="3.764"/><path d="M-5539.245,1257.638a216.792,216.792,0,0,1,25.634-27.128,103.15,103.15,0,0,0-25.376-10.971A230.663,230.663,0,0,1-5539.245,1257.638Z" fill="none" stroke="#fff" stroke-miterlimit="10" stroke-width="0.941" stroke-dasharray="3.764"/><path d="M-5566.579,1326.494h0l26.763-67.417h0Z" fill="none" stroke="#fff" stroke-miterlimit="10" stroke-width="0.941" stroke-dasharray="3.764"/><path d="M-5566.579,1326.494Z" fill="none" stroke="#fff" stroke-miterlimit="10" stroke-width="0.941" stroke-dasharray="3.764"/><path d="M-5566.579,1326.494l64.611-27.925h0l-64.611,27.925Z" fill="none" stroke="#fff" stroke-miterlimit="10" stroke-width="0.941" stroke-dasharray="3.764"/><path d="M-5593.342,1393.911h0l26.763-67.417Z" fill="none" stroke="#fff" stroke-miterlimit="10" stroke-width="0.941" stroke-dasharray="3.764"/><path d="M-5566.579,1326.494l-64.612,27.925h0l64.612-27.925Z" fill="none" stroke="#fff" stroke-miterlimit="10" stroke-width="0.941" stroke-dasharray="3.764"/><path d="M-5566.579,1326.494Z" fill="none" stroke="#fff" stroke-miterlimit="10" stroke-width="0.941" stroke-dasharray="3.764"/><path d="M-5566.579,1326.494Z" fill="none" stroke="#fff" stroke-miterlimit="10" stroke-width="0.941" stroke-dasharray="3.764"/><path d="M-5566.579,1326.494Z" fill="none" stroke="#fff" stroke-miterlimit="10" stroke-width="0.941" stroke-dasharray="3.764"/><path d="M-5566.579,1326.494Z" fill="none" stroke="#fff" stroke-miterlimit="10" stroke-width="0.941" stroke-dasharray="3.764"/><path d="M-5566.579,1326.494l-64.612,27.925h0l64.612-27.925Z" fill="none" stroke="#fff" stroke-miterlimit="10" stroke-width="0.941" stroke-dasharray="3.764"/><rect transform="translate(-5566.579 1326.494)" fill="none" stroke="#fff" stroke-miterlimit="10" stroke-width="0.941" stroke-dasharray="3.764"/><path d="M-5708.477,1326.494a155.563,155.563,0,0,1,1.544-21.893c-30.622,8.736-48.417,21.893-48.417,21.893s17.795,13.157,48.417,21.893A155.582,155.582,0,0,1-5708.477,1326.494Z" fill="#f5d3d3" stroke="#fff" stroke-miterlimit="10" stroke-width="0.941" stroke-dasharray="3.764"/><path d="M-5672.713,1326.494a115.44,115.44,0,0,1,3.63-28.79,197.913,197.913,0,0,0-37.85,6.9,155.563,155.563,0,0,0-1.544,21.893,155.582,155.582,0,0,0,1.544,21.893,197.917,197.917,0,0,0,37.85,6.9A115.437,115.437,0,0,1-5672.713,1326.494Z" fill="#eca9a8" stroke="#fff" stroke-miterlimit="10" stroke-width="0.941" stroke-dasharray="3.764"/><path d="M-5632.569,1355.014l1.378-.6a75.474,75.474,0,0,1-5.309-27.925,75.48,75.48,0,0,1,5.309-27.926l-1.378-.595a202.982,202.982,0,0,0-36.514-.269,115.44,115.44,0,0,0-3.63,28.79,115.437,115.437,0,0,0,3.63,28.789A202.981,202.981,0,0,0-5632.569,1355.014Z" fill="#d53f40" stroke="#fff" stroke-miterlimit="10" stroke-width="0.941" stroke-dasharray="3.764"/><path d="M-5631.191,1298.568a75.48,75.48,0,0,0-5.309,27.926,75.474,75.474,0,0,0,5.309,27.925l64.612-27.925Z" fill="#b53939" stroke="#fff" stroke-miterlimit="10" stroke-width="0.941" stroke-dasharray="3.764"/><path d="M-5700.061,1187.216Z" fill="none" stroke="#fff" stroke-miterlimit="10" stroke-width="0.941" stroke-dasharray="3.764"/><path d="M-5650.979,1207.463c-27.577-16.42-49.081-20.247-49.081-20.247h0s3.667,22.438,19.4,51.213A145.994,145.994,0,0,1-5650.979,1207.463Z" fill="#f6e4d3" stroke="#fff" stroke-miterlimit="10" stroke-width="0.941" stroke-dasharray="3.764"/><path d="M-5619.548,1230.51a205.786,205.786,0,0,0-31.431-23.047,145.994,145.994,0,0,0-29.677,30.966,215.034,215.034,0,0,0,22.087,32.8A109.086,109.086,0,0,1-5619.548,1230.51Z" fill="#ecc9a9" stroke="#fff" stroke-miterlimit="10" stroke-width="0.941" stroke-dasharray="3.764"/><path d="M-5632.569,1297.973l1.378.595a71.754,71.754,0,0,1,37.849-39.492l-.571-1.438a216.687,216.687,0,0,0-25.635-27.128,109.086,109.086,0,0,0-39.021,40.715A216.467,216.467,0,0,0-5632.569,1297.973Z" fill="#e3b07f" stroke="#fff" stroke-miterlimit="10" stroke-width="0.941" stroke-dasharray="3.764"/><path d="M-5632.569,1297.973l1.378.6h0Z" fill="none" stroke="#fff" stroke-miterlimit="10" stroke-width="0.941" stroke-dasharray="3.764"/><path d="M-5593.342,1259.076a71.754,71.754,0,0,0-37.849,39.492l64.612,27.926Z" fill="#d58940" stroke="#fff" stroke-miterlimit="10" stroke-width="0.941" stroke-dasharray="3.764"/><path d="M-5566.579,1326.494l-64.612-27.925h0l64.612,27.925Z" fill="none" stroke="#fff" stroke-miterlimit="10" stroke-width="0.941" stroke-dasharray="3.764"/><path d="M-5566.579,1178.434a137.18,137.18,0,0,1,20.982,1.611c-8.373-31.952-20.982-50.52-20.982-50.52s-12.61,18.568-20.982,50.52A137.185,137.185,0,0,1-5566.579,1178.434Z" fill="#f7f9e5" stroke="#fff" stroke-miterlimit="10" stroke-width="0.941" stroke-dasharray="3.764"/><path d="M-5566.579,1215.751a102.127,102.127,0,0,1,27.592,3.788,223.119,223.119,0,0,0-6.61-39.494,137.18,137.18,0,0,0-20.982-1.611,137.185,137.185,0,0,0-20.982,1.611,222.987,222.987,0,0,0-6.61,39.494A102.116,102.116,0,0,1-5566.579,1215.751Z" fill="#f2f2c5" stroke="#fff" stroke-miterlimit="10" stroke-width="0.941" stroke-dasharray="3.764"/><path d="M-5593.913,1257.638l.571,1.438a67.195,67.195,0,0,1,26.763-5.54,67.2,67.2,0,0,1,26.763,5.54l.571-1.438a230.663,230.663,0,0,0,.258-38.1,102.127,102.127,0,0,0-27.592-3.788,102.116,102.116,0,0,0-27.592,3.788A230.393,230.393,0,0,0-5593.913,1257.638Z" fill="#e3e37f" stroke="#fff" stroke-miterlimit="10" stroke-width="0.941" stroke-dasharray="3.764"/><path d="M-5566.579,1326.494l26.763-67.418a67.2,67.2,0,0,0-26.763-5.54,67.195,67.195,0,0,0-26.763,5.54l26.763,67.418Z" fill="#e4d47f" stroke="#fff" stroke-miterlimit="10" stroke-width="0.941" stroke-dasharray="3.764"/><path d="M-5566.579,1326.494Z" fill="none" stroke="#fff" stroke-miterlimit="10" stroke-width="0.941" stroke-dasharray="3.764"/><path d="M-5452.5,1238.429c15.738-28.775,19.4-51.213,19.4-51.213s-21.5,3.827-49.082,20.247A145.948,145.948,0,0,1-5452.5,1238.429Z" fill="#d3f4d3" stroke="#fff" stroke-miterlimit="10" stroke-width="0.941" stroke-dasharray="3.764"/><path d="M-5474.59,1271.225a214.89,214.89,0,0,0,22.087-32.8,145.948,145.948,0,0,0-29.677-30.966,205.879,205.879,0,0,0-31.431,23.047A109.082,109.082,0,0,1-5474.59,1271.225Z" fill="#a8eca9" stroke="#fff" stroke-miterlimit="10" stroke-width="0.941" stroke-dasharray="3.764"/><path d="M-5500.589,1297.973l-1.378.6h0Z" fill="none" stroke="#fff" stroke-miterlimit="10" stroke-width="0.941" stroke-dasharray="3.764"/><path d="M-5513.611,1230.51a216.792,216.792,0,0,0-25.634,27.128l-.571,1.438a71.755,71.755,0,0,1,37.848,39.492l1.379-.595a216.527,216.527,0,0,0,26-26.748A109.082,109.082,0,0,0-5513.611,1230.51Z" fill="#7fe280" stroke="#fff" stroke-miterlimit="10" stroke-width="0.941" stroke-dasharray="3.764"/><path d="M-5566.579,1326.494l64.611-27.925h0l-64.611,27.925Z" fill="none" stroke="#fff" stroke-miterlimit="10" stroke-width="0.941" stroke-dasharray="3.764"/><path d="M-5566.579,1326.494l64.611-27.926a71.755,71.755,0,0,0-37.848-39.492l-26.763,67.418Z" fill="#329c33" stroke="#fff" stroke-miterlimit="10" stroke-width="0.941" stroke-dasharray="3.764"/><path d="M-5566.579,1326.494h0Z" fill="none" stroke="#fff" stroke-miterlimit="10" stroke-width="0.941" stroke-dasharray="3.764"/><path d="M-5566.579,1326.494h0Z" fill="none" stroke="#fff" stroke-miterlimit="10" stroke-width="0.941" stroke-dasharray="3.764"/><path d="M-5566.579,1326.494Z" fill="none" stroke="#fff" stroke-miterlimit="10" stroke-width="0.941" stroke-dasharray="3.764"/><path d="M-5377.808,1326.494Z" fill="none" stroke="#fff" stroke-miterlimit="10" stroke-width="0.941" stroke-dasharray="3.764"/><path d="M-5426.225,1304.6a155.564,155.564,0,0,1,1.543,21.893,155.583,155.583,0,0,1-1.543,21.893c30.622-8.736,48.417-21.893,48.417-21.893h0S-5395.6,1313.337-5426.225,1304.6Z" fill="#cfe0cf" stroke="#fff" stroke-miterlimit="10" stroke-width="0.941" stroke-dasharray="3.764"/><path d="M-5460.446,1326.494a115.369,115.369,0,0,1-3.63,28.789,197.906,197.906,0,0,0,37.851-6.9,155.583,155.583,0,0,0,1.543-21.893,155.564,155.564,0,0,0-1.543-21.893,197.9,197.9,0,0,0-37.851-6.9A115.372,115.372,0,0,1-5460.446,1326.494Z" fill="#9fc19f" stroke="#fff" stroke-miterlimit="10" stroke-width="0.941" stroke-dasharray="3.764"/><path d="M-5500.589,1297.973l-1.379.595a75.48,75.48,0,0,1,5.31,27.926,75.474,75.474,0,0,1-5.31,27.925l1.379.6-1.379-.6h0l1.379.6a202.965,202.965,0,0,0,36.513.269,115.369,115.369,0,0,0,3.63-28.789,115.372,115.372,0,0,0-3.63-28.79A202.966,202.966,0,0,0-5500.589,1297.973Z" fill="#2f862e" stroke="#fff" stroke-miterlimit="10" stroke-width="0.941" stroke-dasharray="3.764"/><path d="M-5501.968,1354.419a75.474,75.474,0,0,0,5.31-27.925,75.48,75.48,0,0,0-5.31-27.926l-64.611,27.926Z" fill="#2a762b" stroke="#fff" stroke-miterlimit="10" stroke-width="0.941" stroke-dasharray="3.764"/><path d="M-5566.579,1326.494h0l64.611,27.925h0l-64.611-27.925Z" fill="none" stroke="#fff" stroke-miterlimit="10" stroke-width="0.941" stroke-dasharray="3.764"/><path d="M-5566.579,1326.494Z" fill="none" stroke="#fff" stroke-miterlimit="10" stroke-width="0.941" stroke-dasharray="3.764"/><path d="M-5433.1,1465.771Z" fill="none" stroke="#fff" stroke-miterlimit="10" stroke-width="0.941" stroke-dasharray="3.764"/><path d="M-5482.18,1445.524c27.577,16.42,49.08,20.247,49.082,20.247h0s-3.668-22.439-19.4-51.213A145.952,145.952,0,0,1-5482.18,1445.524Z" fill="#e0eef8" stroke="#fff" stroke-miterlimit="10" stroke-width="0.941" stroke-dasharray="3.764"/><path d="M-5513.611,1422.478a205.95,205.95,0,0,0,31.431,23.046,145.952,145.952,0,0,0,29.677-30.966,214.9,214.9,0,0,0-22.087-32.8A109.093,109.093,0,0,1-5513.611,1422.478Z" fill="#bbdaf0" stroke="#fff" stroke-miterlimit="10" stroke-width="0.941" stroke-dasharray="3.764"/><path d="M-5500.589,1355.014l-1.379-.6a71.752,71.752,0,0,1-37.848,39.492l.571,1.438-.571-1.438h0l.571,1.438a216.865,216.865,0,0,0,25.634,27.129,109.093,109.093,0,0,0,39.021-40.716A216.517,216.517,0,0,0-5500.589,1355.014Z" fill="#83bce3" stroke="#fff" stroke-miterlimit="10" stroke-width="0.941" stroke-dasharray="3.764"/><path d="M-5539.816,1393.911a71.752,71.752,0,0,0,37.848-39.492l-64.611-27.925Z" fill="#3b8abd" stroke="#fff" stroke-miterlimit="10" stroke-width="0.941" stroke-dasharray="3.764"/><path d="M-5566.579,1326.494l26.763,67.417h0l-26.763-67.417Z" fill="none" stroke="#fff" stroke-miterlimit="10" stroke-width="0.941" stroke-dasharray="3.764"/><rect transform="translate(-5566.579 1523.462)" fill="none" stroke="#fff" stroke-miterlimit="10" stroke-width="0.941" stroke-dasharray="3.764"/><path d="M-5566.579,1474.553a137.2,137.2,0,0,1-20.982-1.61c8.372,31.951,20.981,50.518,20.982,50.519h0s12.609-18.568,20.982-50.519A137.2,137.2,0,0,1-5566.579,1474.553Z" fill="#d4d2f5" stroke="#fff" stroke-miterlimit="10" stroke-width="0.941" stroke-dasharray="3.764"/><path d="M-5566.579,1437.236a102.116,102.116,0,0,1-27.592-3.788,223.018,223.018,0,0,0,6.61,39.495,137.2,137.2,0,0,0,20.982,1.61,137.2,137.2,0,0,0,20.982-1.61,223.15,223.15,0,0,0,6.61-39.495A102.127,102.127,0,0,1-5566.579,1437.236Z" fill="#a9a9ec" stroke="#fff" stroke-miterlimit="10" stroke-width="0.941" stroke-dasharray="3.764"/><path d="M-5539.245,1395.349l-.571-1.438a67.2,67.2,0,0,1-26.763,5.54,67.195,67.195,0,0,1-26.763-5.54l-.571,1.438a230.393,230.393,0,0,0-.258,38.1,102.116,102.116,0,0,0,27.592,3.788,102.127,102.127,0,0,0,27.592-3.788A230.663,230.663,0,0,0-5539.245,1395.349Z" fill="#7c7ce2" stroke="#fff" stroke-miterlimit="10" stroke-width="0.941" stroke-dasharray="3.764"/><path d="M-5593.342,1393.911a67.195,67.195,0,0,0,26.763,5.54,67.2,67.2,0,0,0,26.763-5.54l-26.763-67.417Z" fill="#3737ab" stroke="#fff" stroke-miterlimit="10" stroke-width="0.941" stroke-dasharray="3.764"/><path d="M-5700.061,1465.771Z" fill="none" stroke="#fff" stroke-miterlimit="10" stroke-width="0.941" stroke-dasharray="3.764"/><path d="M-5680.656,1414.558c-15.736,28.774-19.4,51.211-19.4,51.213h0s21.5-3.827,49.081-20.247A146,146,0,0,1-5680.656,1414.558Z" fill="#fae9fa" stroke="#fff" stroke-miterlimit="10" stroke-width="0.941" stroke-dasharray="3.764"/><path d="M-5658.569,1381.762a215.046,215.046,0,0,0-22.087,32.8,146,146,0,0,0,29.677,30.966,205.857,205.857,0,0,0,31.431-23.046A109.1,109.1,0,0,1-5658.569,1381.762Z" fill="#f5d4f5" stroke="#fff" stroke-miterlimit="10" stroke-width="0.941" stroke-dasharray="3.764"/><path d="M-5593.913,1395.349l.571-1.438h0l-.571,1.438.571-1.438a71.751,71.751,0,0,1-37.849-39.492l-1.378.6a216.458,216.458,0,0,0-26,26.748,109.1,109.1,0,0,0,39.021,40.716A216.76,216.76,0,0,0-5593.913,1395.349Z" fill="#e37fe3" stroke="#fff" stroke-miterlimit="10" stroke-width="0.941" stroke-dasharray="3.764"/><path d="M-5566.579,1326.494l-26.763,67.417h0l26.763-67.417Z" fill="none" stroke="#fff" stroke-miterlimit="10" stroke-width="0.941" stroke-dasharray="3.764"/><path d="M-5631.191,1354.419a71.751,71.751,0,0,0,37.849,39.492l26.763-67.417Z" fill="#bb3bbb" stroke="#fff" stroke-miterlimit="10" stroke-width="0.941" stroke-dasharray="3.764"/><path d="M-5566.026,1220.944a12.91,12.91,0,0,1,12.627,13.175,12.91,12.91,0,0,1-12.627,13.176,12.911,12.911,0,0,1-12.627-13.176A12.911,12.911,0,0,1-5566.026,1220.944Z" fill="#ffdd67"/><path d="M-5558.579,1235.189c-.171-.228-.474-.188-.8-.188h-13.287c-.33,0-.633-.04-.805.188-1.645,2.19.291,8.592,7.449,8.592S-5556.933,1237.379-5558.579,1235.189Z" fill="#664e27"/><path d="M-5565.251,1238.4c-.243-.006-.619.231-.481.86.068.317.5.7.5,1.213a.8.8,0,0,1-1.59,0c0-.512.431-.9.5-1.213.137-.629-.239-.866-.482-.86a2.032,2.032,0,0,0-1.746,2.023,2.542,2.542,0,0,0,2.522,2.563,2.543,2.543,0,0,0,2.521-2.563A2.033,2.033,0,0,0-5565.251,1238.4Z" fill="#4c3526"/><path d="M-5569.273,1242.317a7.9,7.9,0,0,0,3.247.666,7.888,7.888,0,0,0,3.246-.666,7.154,7.154,0,0,0-3.246-.731A7.155,7.155,0,0,0-5569.273,1242.317Z" fill="#ff717f"/><path d="M-5559.733,1235.876h-12.587c-.864,0-.864,1.757-.023,1.757h12.632C-5558.869,1237.633-5558.869,1235.876-5559.733,1235.876Z" fill="#fff"/><path d="M-5570.867,1227.971a2.152,2.152,0,0,1,2.1,2.2,2.152,2.152,0,0,1-2.1,2.2,2.152,2.152,0,0,1-2.1-2.2A2.152,2.152,0,0,1-5570.867,1227.971Z" fill="#664e27"/><path d="M-5561.186,1227.971a2.152,2.152,0,0,1,2.1,2.2,2.152,2.152,0,0,1-2.1,2.2,2.151,2.151,0,0,1-2.1-2.2A2.152,2.152,0,0,1-5561.186,1227.971Z" fill="#664e27"/><path d="M-5566.026,1261.33a12.911,12.911,0,0,1,12.627,13.175,12.911,12.911,0,0,1-12.627,13.175,12.91,12.91,0,0,1-12.627-13.175A12.91,12.91,0,0,1-5566.026,1261.33Z" fill="#ffdd67"/><path d="M-5557.747,1268.961a.259.259,0,0,1-.07.48,9.6,9.6,0,0,0-3.475,1.037,6.341,6.341,0,0,1,3.789,2.12c.166.209-.042.491-.229.42a13.785,13.785,0,0,0-6.669-.894c-.205.022-.381-.1-.338-.3C-5564.046,1268.662-5560.146,1267.469-5557.747,1268.961Z" fill="#664e27"/><path d="M-5574.305,1268.961a.259.259,0,0,0,.07.48,9.611,9.611,0,0,1,3.475,1.037,6.338,6.338,0,0,0-3.789,2.12c-.167.209.042.491.228.42a13.789,13.789,0,0,1,6.67-.894c.205.022.38-.1.337-.3C-5568.007,1268.662-5571.907,1267.469-5574.305,1268.961Z" fill="#664e27"/><path d="M-5558.578,1275.575c-.171-.229-.474-.189-.8-.189h-13.287c-.33,0-.633-.04-.8.189-1.646,2.19.29,8.591,7.448,8.591S-5556.932,1277.765-5558.578,1275.575Z" fill="#664e27"/><path d="M-5565.251,1278.783c-.243-.007-.618.231-.481.859.069.318.5.7.5,1.214a.8.8,0,0,1-1.589,0c0-.512.431-.9.5-1.214.137-.628-.238-.866-.482-.859a2.031,2.031,0,0,0-1.746,2.022,2.543,2.543,0,0,0,2.521,2.563,2.543,2.543,0,0,0,2.522-2.563A2.031,2.031,0,0,0-5565.251,1278.783Z" fill="#4c3526"/><path d="M-5569.273,1282.7a7.881,7.881,0,0,0,3.247.666,7.873,7.873,0,0,0,3.246-.666,7.161,7.161,0,0,0-3.246-.731A7.174,7.174,0,0,0-5569.273,1282.7Z" fill="#ff717f"/><path d="M-5559.732,1276.262h-12.588c-.864,0-.864,1.756-.022,1.756h12.632C-5558.868,1278.018-5558.868,1276.262-5559.732,1276.262Z" fill="#fff"/><path d="M-5504.242,1249.315a12.91,12.91,0,0,1,12.627,13.175,12.91,12.91,0,0,1-12.627,13.175,12.909,12.909,0,0,1-12.627-13.175A12.909,12.909,0,0,1-5504.242,1249.315Z" fill="#ffdd67"/><path d="M-5508.345,1260.115a2.152,2.152,0,0,1,2.1,2.2,2.151,2.151,0,0,1-2.1,2.2,2.152,2.152,0,0,1-2.1-2.2A2.153,2.153,0,0,1-5508.345,1260.115Z" fill="#664e27"/><path d="M-5496.16,1260.535a5.811,5.811,0,0,0-4.92-1.376c-.244.049-.459-.888-.164-.947a6.71,6.71,0,0,1,5.679,1.587C-5495.337,1260.006-5495.973,1260.7-5496.16,1260.535Z" fill="#917524"/><path d="M-5507.4,1256.7a5.81,5.81,0,0,0-4.921,1.375c-.186.171-.823-.529-.594-.735a6.7,6.7,0,0,1,5.679-1.587C-5506.945,1255.808-5507.16,1256.746-5507.4,1256.7Z" fill="#917524"/><path d="M-5496.6,1263.482a3.453,3.453,0,0,0-2.937-2.309,3.456,3.456,0,0,0-2.937,2.309c-.073.155.306.434.493.281a3.8,3.8,0,0,1,2.444-.8,3.8,3.8,0,0,1,2.444.8C-5496.9,1263.916-5496.522,1263.636-5496.6,1263.482Z" fill="#664e27"/><path d="M-5499.136,1266.976c-2.921,1.6-6.886,1.272-8.052,1.272-.314,0-.5.135-.421.408.841,3.057,7.155,3.057,8.892-1.2C-5498.524,1266.98-5498.868,1266.829-5499.136,1266.976Z" fill="#664e27"/><path d="M-5478.758,1222.042a12.911,12.911,0,0,1,12.627,13.175,12.911,12.911,0,0,1-12.627,13.176,12.91,12.91,0,0,1-12.627-13.176A12.91,12.91,0,0,1-5478.758,1222.042Z" fill="#ffdd67"/><g opacity="0.8" style="isolation:isolate"><path d="M-5470.841,1233.461a3.442,3.442,0,0,1,3.367,3.513,3.443,3.443,0,0,1-3.367,3.514,3.444,3.444,0,0,1-3.367-3.514A3.443,3.443,0,0,1-5470.841,1233.461Z" fill="#ff717f"/></g><g opacity="0.8" style="isolation:isolate"><ellipse cx="3.367" cy="3.513" rx="3.367" ry="3.513" transform="translate(-5490.042 1233.461)" fill="#ff717f"/></g><path d="M-5473.461,1238.854a8.484,8.484,0,0,1-10.594,0c-.409-.3-.777.217-.5.692a6.765,6.765,0,0,0,5.8,3.36,6.765,6.765,0,0,0,5.8-3.36C-5472.685,1239.071-5473.053,1238.556-5473.461,1238.854Z" fill="#664e27"/><path d="M-5480.221,1232.958c-.782-2.245-1.961-3.368-3.14-3.368s-2.358,1.123-3.139,3.368c-.078.225.325.633.527.412a3.4,3.4,0,0,1,2.612-1.168,3.4,3.4,0,0,1,2.612,1.168C-5480.547,1233.591-5480.143,1233.183-5480.221,1232.958Z" fill="#664e27"/><path d="M-5471.016,1232.958c-.782-2.245-1.961-3.368-3.14-3.368s-2.358,1.123-3.141,3.368c-.077.225.327.633.528.412a3.407,3.407,0,0,1,2.613-1.168,3.406,3.406,0,0,1,2.613,1.168C-5471.342,1233.591-5470.939,1233.183-5471.016,1232.958Z" fill="#664e27"/><path d="M-5518.992,1290.014a12.91,12.91,0,0,1-12.626,13.176,12.911,12.911,0,0,1-12.628-13.176,12.911,12.911,0,0,1,12.628-13.174A12.909,12.909,0,0,1-5518.992,1290.014Z" fill="#ffdd67"/><path d="M-5519.056,1281.767a2.875,2.875,0,0,0-1.878-2.439,3.057,3.057,0,0,0-3.131,1.187,5.37,5.37,0,0,0-2.744-3.386,2.8,2.8,0,0,0-3.546.907c-.874,1.154-1.221,2.932-.286,5.259.876,2.178,4.8,6.592,4.917,6.72.152-.1,4.526-2.952,5.6-4.352A4.936,4.936,0,0,0-5519.056,1281.767Z" fill="#f46767"/><path d="M-5532.881,1278.036a2.8,2.8,0,0,0-3.546-.907,5.37,5.37,0,0,0-2.746,3.386,3.057,3.057,0,0,0-3.13-1.186,2.874,2.874,0,0,0-1.879,2.438,4.947,4.947,0,0,0,1.072,3.9c1.071,1.4,5.446,4.252,5.6,4.351.112-.128,4.04-4.543,4.917-6.72C-5531.659,1280.968-5532.007,1279.19-5532.881,1278.036Z" fill="#f46767"/><path d="M-5524.464,1292.673a.9.9,0,0,0-.767-.908,32.7,32.7,0,0,0-6.388-.59h0a32.691,32.691,0,0,0-6.387.59.9.9,0,0,0-.767.908c0,3.192,2.361,6.407,7.154,6.407h0C-5526.825,1299.08-5524.464,1295.865-5524.464,1292.673Z" fill="#664e27"/><path d="M-5526.278,1292.774a31.783,31.783,0,0,0-5.341-.444,31.787,31.787,0,0,0-5.341.444c-.545.1-.579.327-.54.653.023.194.057.428.111.682.06.282.111.411.533.358.808-.1,9.667-.1,10.475,0,.423.053.473-.077.533-.358.054-.254.089-.487.111-.682C-5525.7,1293.1-5525.733,1292.871-5526.278,1292.774Z" fill="#fff"/><path d="M-5566.026,1185.812a12.91,12.91,0,0,1,12.627,13.175,12.91,12.91,0,0,1-12.627,13.175,12.91,12.91,0,0,1-12.627-13.175A12.91,12.91,0,0,1-5566.026,1185.812Z" fill="#ffdd67"/><path d="M-5570.867,1194.416a2.151,2.151,0,0,1,2.1,2.2,2.151,2.151,0,0,1-2.1,2.195,2.152,2.152,0,0,1-2.1-2.195A2.152,2.152,0,0,1-5570.867,1194.416Z" fill="#664e27"/><path d="M-5561.186,1194.416a2.15,2.15,0,0,1,2.1,2.2,2.15,2.15,0,0,1-2.1,2.195,2.151,2.151,0,0,1-2.1-2.195A2.151,2.151,0,0,1-5561.186,1194.416Z" fill="#664e27"/><path d="M-5560.729,1202.623a8.482,8.482,0,0,1-10.593,0c-.409-.3-.777.217-.5.693a6.764,6.764,0,0,0,5.8,3.359,6.765,6.765,0,0,0,5.8-3.359C-5559.953,1202.84-5560.321,1202.326-5560.729,1202.623Z" fill="#664e27"/><path d="M-5613.924,1289.443a12.047,12.047,0,0,0,11.785,12.3,12.047,12.047,0,0,0,11.785-12.3,12.047,12.047,0,0,0-11.785-12.3A12.046,12.046,0,0,0-5613.924,1289.443Z" fill="#ffdd67"/><path d="M-5609.637,1281.524a5.388,5.388,0,0,1,4.738-.431c.215.086.559-.739.3-.844a6.214,6.214,0,0,0-5.467.5C-5610.311,1280.9-5609.834,1281.649-5609.637,1281.524Z" fill="#917524"/><path d="M-5599.535,1282.842a5.388,5.388,0,0,1,4.738-.433c.216.088.559-.738.3-.843a6.222,6.222,0,0,0-5.467.5C-5600.209,1282.216-5599.734,1282.966-5599.535,1282.842Z" fill="#917524"/><path d="M-5605.445,1291.519a7.6,7.6,0,0,1,6.334,1.135c.451.328-.4,1.516-.842,1.187a6.253,6.253,0,0,0-5.111-.916C-5605.6,1293.066-5606.012,1291.68-5605.445,1291.519Z" fill="#664e27"/><path d="M-5597.59,1289.069a3.237,3.237,0,0,1-3.165-3.3,3.378,3.378,0,0,1,.641-1.986,8.375,8.375,0,0,1,2.345-.328,8.158,8.158,0,0,1,2.81.48,3.393,3.393,0,0,1,.533,1.833A3.236,3.236,0,0,1-5597.59,1289.069Z" fill="#fff"/><path d="M-5597.155,1283.477a1.681,1.681,0,0,1,.285.939,1.619,1.619,0,0,1-1.583,1.652,1.619,1.619,0,0,1-1.583-1.652,1.681,1.681,0,0,1,.157-.7,8.54,8.54,0,0,1,2.111-.259C-5597.56,1283.454-5597.357,1283.462-5597.155,1283.477Z" fill="#664e27"/><path d="M-5606.689,1289.069a3.237,3.237,0,0,1-3.164-3.3,3.381,3.381,0,0,1,.641-1.986,8.375,8.375,0,0,1,2.345-.328,8.153,8.153,0,0,1,2.81.48,3.384,3.384,0,0,1,.533,1.833A3.235,3.235,0,0,1-5606.689,1289.069Z" fill="#fff"/><path d="M-5606.252,1283.477a1.688,1.688,0,0,1,.284.939,1.619,1.619,0,0,1-1.583,1.652,1.619,1.619,0,0,1-1.582-1.652,1.68,1.68,0,0,1,.156-.7,8.545,8.545,0,0,1,2.111-.259C-5606.658,1283.454-5606.454,1283.462-5606.252,1283.477Z" fill="#664e27"/><path d="M-5601.872,1295.607c-1.773.449-6.252,1-7.08.138-.371-.391-.3-.976-.181-1.979a2.177,2.177,0,0,0-1.481-2.167c-.811-.108-1.276.511-.989,1.4.63,1.958-.568,2.588-.623,4.044a5.646,5.646,0,0,0,.934,4.033,5.211,5.211,0,0,0,4.612,2.025c.98-.035,1.39-.074,1.619-.538.254-.513.138-.639.242-.825.23-.406.346-.356.451-.814.114-.5-.225-.78-.142-1.022.17-.507.594-.434.168-1.648a8.691,8.691,0,0,0,3.218-.961C-5599.593,1296.389-5600.93,1295.369-5601.872,1295.607Z" fill="#fff"/><path d="M-5611.458,1292.59a4.008,4.008,0,0,1-.144,3.149c-.731,1.608-1.037,6.071,3.484,6.922,2.747.517,3.153-.188,3.037-.934-.076-.481.314-.669.4-.833.293-.549-.138-.778-.146-1-.016-.41.38-.4.443-.791.113-.719-.705-.962.02-1.017a5.744,5.744,0,0,0,3.131-.929c.752-.546.231-1.619-.783-1.394-2.369.523-5.874,1.161-7.089,0-.543-.521-.107-1.124-.157-2.308C-5609.331,1291.862-5611.739,1291.26-5611.458,1292.59Zm3.2,10.792h0a5.021,5.021,0,0,1-3.355-2.093,5.728,5.728,0,0,1-1.016-3.981c0-.1.011-.2.015-.286a4.154,4.154,0,0,1,.431-1.572,2.833,2.833,0,0,0,.209-2.34,1.532,1.532,0,0,1,.191-1.485,1.317,1.317,0,0,1,1.213-.411l.058.01a2.57,2.57,0,0,1,1.773,2.6c-.113.958-.157,1.421.074,1.663a1.2,1.2,0,0,0,.635.238,19.2,19.2,0,0,0,6.055-.49,1.678,1.678,0,0,1,.71-.016,1.449,1.449,0,0,1,1.215,1.013c.061.3.031.872-.86,1.4a8.2,8.2,0,0,1-2.926.939c.321.87-.468,1.2-.309,1.529a1.045,1.045,0,0,1-.308,1.345c-.34.328.07.7-.25,1.3-.358.679-1.013.714-1.946.748A7.444,7.444,0,0,1-5608.262,1303.382Z" fill="#cccfd4"/><path d="M-5627.4,1379.478a12.91,12.91,0,0,1,12.627,13.175,12.91,12.91,0,0,1-12.627,13.175,12.91,12.91,0,0,1-12.627-13.175A12.91,12.91,0,0,1-5627.4,1379.478Z" fill="#ffdd67"/><path d="M-5632.244,1388.521a2.152,2.152,0,0,1,2.1,2.2,2.151,2.151,0,0,1-2.1,2.2,2.152,2.152,0,0,1-2.1-2.2A2.152,2.152,0,0,1-5632.244,1388.521Z" fill="#664e27"/><path d="M-5622.564,1388.521a2.152,2.152,0,0,1,2.1,2.2,2.151,2.151,0,0,1-2.1,2.2,2.151,2.151,0,0,1-2.1-2.2A2.152,2.152,0,0,1-5622.564,1388.521Z" fill="#664e27"/><path d="M-5624.511,1399.68h-5.785c-.633,0-.633-1.757,0-1.757h5.785C-5623.878,1397.923-5623.878,1399.68-5624.511,1399.68Z" fill="#664e27"/><path d="M-5479.986,1406.059a12.91,12.91,0,0,1,12.626,13.175,12.91,12.91,0,0,1-12.626,13.176,12.91,12.91,0,0,1-12.627-13.176A12.91,12.91,0,0,1-5479.986,1406.059Z" fill="#ffdd67"/><path d="M-5484.826,1415.487a2.152,2.152,0,0,1,2.1,2.2,2.153,2.153,0,0,1-2.1,2.2,2.152,2.152,0,0,1-2.1-2.2A2.152,2.152,0,0,1-5484.826,1415.487Z" fill="#664e27"/><path d="M-5475.146,1415.487a2.151,2.151,0,0,1,2.1,2.2,2.151,2.151,0,0,1-2.1,2.2,2.152,2.152,0,0,1-2.1-2.2A2.151,2.151,0,0,1-5475.146,1415.487Z" fill="#664e27"/><path d="M-5655.357,1404.9a12.91,12.91,0,0,1,12.627,13.175,12.91,12.91,0,0,1-12.627,13.175,12.909,12.909,0,0,1-12.626-13.175A12.91,12.91,0,0,1-5655.357,1404.9Z" fill="#ffdd67"/><path d="M-5649.674,1421.585a4.732,4.732,0,0,0,4.629-4.83,4.978,4.978,0,0,0-.424-2.012,9.873,9.873,0,0,0-4.2-.9,9.872,9.872,0,0,0-4.205.9,4.963,4.963,0,0,0-.425,2.012A4.733,4.733,0,0,0-5649.674,1421.585Z" fill="#fff"/><path d="M-5649.463,1413.851a2.025,2.025,0,0,0-.323,1.1,1.936,1.936,0,0,0,1.893,1.976,1.937,1.937,0,0,0,1.9-1.976,2.037,2.037,0,0,0-.057-.46A10.075,10.075,0,0,0-5649.463,1413.851Z" fill="#664e27"/><path d="M-5661.039,1421.585a4.732,4.732,0,0,0,4.63-4.83,4.978,4.978,0,0,0-.424-2.012,9.878,9.878,0,0,0-4.206-.9,9.869,9.869,0,0,0-4.2.9,4.962,4.962,0,0,0-.425,2.012A4.732,4.732,0,0,0-5661.039,1421.585Z" fill="#fff"/><path d="M-5660.827,1413.851a2.029,2.029,0,0,0-.323,1.1,1.937,1.937,0,0,0,1.894,1.976,1.936,1.936,0,0,0,1.893-1.976,2.036,2.036,0,0,0-.056-.46A10.071,10.071,0,0,0-5660.827,1413.851Z" fill="#664e27"/><path d="M-5651.745,1424.8a8.263,8.263,0,0,0-7.237-.005c-.564.283.138,1.822.7,1.537a6.8,6.8,0,0,1,5.84,0C-5651.882,1426.611-5651.148,1425.1-5651.745,1424.8Z" fill="#664e27"/><path d="M-5456.084,1326.493a12.907,12.907,0,0,0,12.626,13.176,12.907,12.907,0,0,0,12.627-13.176,12.907,12.907,0,0,0-12.627-13.175A12.907,12.907,0,0,0-5456.084,1326.493Z" fill="#ffdd67"/><path d="M-5436.855,1328.955c0,3.766,4.906,3.768,4.9,0,0-2.751-2.452-5.435-2.452-5.435S-5436.855,1326.206-5436.855,1328.955Z" fill="#65b1ef"/><path d="M-5440.723,1325.615a2.152,2.152,0,0,1,2.1,2.2,2.153,2.153,0,0,1-2.1,2.2,2.152,2.152,0,0,1-2.1-2.2A2.152,2.152,0,0,1-5440.723,1325.615Z" fill="#664e27"/><path d="M-5450.4,1325.615a2.152,2.152,0,0,1,2.1,2.2,2.152,2.152,0,0,1-2.1,2.2,2.152,2.152,0,0,1-2.1-2.2A2.152,2.152,0,0,1-5450.4,1325.615Z" fill="#664e27"/><path d="M-5448.265,1321.182a5.815,5.815,0,0,1-4.922,1.376c-.243-.05-.458.888-.162.947a6.709,6.709,0,0,0,5.679-1.587C-5447.442,1321.711-5448.079,1321.013-5448.265,1321.182Z" fill="#917524"/><path d="M-5437.939,1322.491a5.805,5.805,0,0,1-4.92-1.376c-.187-.171-.823.529-.594.736a6.706,6.706,0,0,0,5.678,1.587C-5437.479,1323.379-5437.694,1322.441-5437.939,1322.491Z" fill="#917524"/><path d="M-5440.9,1333.226a8.293,8.293,0,0,0-7.126,1.324c-.507.381.443,1.768.948,1.384a6.828,6.828,0,0,1,5.75-1.068C-5440.73,1335.032-5440.262,1333.413-5440.9,1333.226Z" fill="#664e27"/><path d="M-5531.619,1349.8a12.91,12.91,0,0,1,12.627,13.175,12.91,12.91,0,0,1-12.627,13.175,12.911,12.911,0,0,1-12.627-13.175A12.911,12.911,0,0,1-5531.619,1349.8Z" fill="#ffdd67"/><path d="M-5531.619,1365.668a3.012,3.012,0,0,1,2.946,3.074,3.013,3.013,0,0,1-2.946,3.075,3.013,3.013,0,0,1-2.946-3.075A3.012,3.012,0,0,1-5531.619,1365.668Z" fill="#664e27"/><path d="M-5536.565,1357.941a1.937,1.937,0,0,1,1.894,1.976,1.937,1.937,0,0,1-1.894,1.976,1.937,1.937,0,0,1-1.894-1.976A1.937,1.937,0,0,1-5536.565,1357.941Z" fill="#664e27"/><path d="M-5527.094,1357.941a1.936,1.936,0,0,1,1.894,1.976,1.936,1.936,0,0,1-1.894,1.976,1.936,1.936,0,0,1-1.894-1.976A1.936,1.936,0,0,1-5527.094,1357.941Z" fill="#664e27"/><path d="M-5655.449,1224.239a12.91,12.91,0,0,1,12.627,13.174,12.91,12.91,0,0,1-12.627,13.176,12.911,12.911,0,0,1-12.627-13.176A12.91,12.91,0,0,1-5655.449,1224.239Z" fill="#ffdd67"/><g opacity="0.5" style="isolation:isolate"><path d="M-5655.444,1246.052" fill="#664e27"/></g><ellipse cx="4.63" cy="4.831" rx="4.63" ry="4.831" transform="translate(-5666.392 1231.704)" fill="#fff"/><path d="M-5649.135,1231.7a4.734,4.734,0,0,1,4.629,4.831,4.734,4.734,0,0,1-4.629,4.831,4.733,4.733,0,0,1-4.63-4.831A4.733,4.733,0,0,1-5649.135,1231.7Z" fill="#fff"/><path d="M-5653.765,1235.217a3.449,3.449,0,0,0-3.367,0c-.483-.453-.359-.906-.842-1.361a4.241,4.241,0,0,1,5.051,0C-5653.407,1234.31-5653.282,1234.763-5653.765,1235.217Z" fill="#494949"/><path d="M-5649.135,1240.927a4.3,4.3,0,0,1-4.209-4.392,4.3,4.3,0,0,1,4.209-4.391,4.3,4.3,0,0,1,4.208,4.391A4.3,4.3,0,0,1-5649.135,1240.927Zm0-10.1a5.593,5.593,0,0,0-5.472,5.709,5.594,5.594,0,0,0,5.472,5.709,5.593,5.593,0,0,0,5.471-5.709A5.593,5.593,0,0,0-5649.135,1230.826Z" fill="#494949"/><path d="M-5661.762,1240.927a4.3,4.3,0,0,1-4.209-4.392,4.3,4.3,0,0,1,4.209-4.391,4.3,4.3,0,0,1,4.209,4.391A4.3,4.3,0,0,1-5661.762,1240.927Zm0-10.1a5.594,5.594,0,0,0-5.472,5.709,5.594,5.594,0,0,0,5.472,5.709,5.594,5.594,0,0,0,5.471-5.709A5.594,5.594,0,0,0-5661.762,1230.826Z" fill="#494949"/><path d="M-5660.5,1234.559a1.992,1.992,0,0,1,1.684,2.2,1.992,1.992,0,0,1-1.684,2.2,1.992,1.992,0,0,1-1.683-2.2A1.992,1.992,0,0,1-5660.5,1234.559Z" fill="#664e27"/><path d="M-5650.4,1234.559a1.991,1.991,0,0,1,1.683,2.2,1.991,1.991,0,0,1-1.683,2.2,1.992,1.992,0,0,1-1.684-2.2A1.992,1.992,0,0,1-5650.4,1234.559Z" fill="#664e27"/><path d="M-5657.668,1245.9a8.291,8.291,0,0,0,7.125-1.323c.507-.382-.444-1.769-.948-1.385a6.825,6.825,0,0,1-5.749,1.068C-5657.839,1244.092-5658.307,1245.71-5657.668,1245.9Z" fill="#664e27"/><path d="M-5646.525,1230.254a5.816,5.816,0,0,0-4.921-1.376c-.244.05-.458-.887-.163-.947a6.7,6.7,0,0,1,5.679,1.588C-5645.7,1229.725-5646.338,1230.424-5646.525,1230.254Z" fill="#917524"/><path d="M-5659.453,1228.813a5.808,5.808,0,0,0-4.92,1.375c-.187.171-.823-.529-.595-.735a6.707,6.707,0,0,1,5.68-1.587C-5658.993,1227.924-5659.208,1228.862-5659.453,1228.813Z" fill="#917524"/><path d="M-5599.767,1349.49a12.91,12.91,0,0,1,12.626,13.175,12.91,12.91,0,0,1-12.626,13.176,12.91,12.91,0,0,1-12.627-13.176A12.91,12.91,0,0,1-5599.767,1349.49Z" fill="#ffdd67"/><path d="M-5603.733,1356.6a5.816,5.816,0,0,1-4.921,1.376c-.243-.05-.458.888-.162.946a6.7,6.7,0,0,0,5.679-1.587C-5602.91,1357.13-5603.547,1356.431-5603.733,1356.6Z" fill="#917524"/><path d="M-5590.881,1357.91a5.811,5.811,0,0,1-4.92-1.376c-.187-.171-.823.529-.6.735a6.71,6.71,0,0,0,5.679,1.588C-5590.421,1358.8-5590.637,1357.86-5590.881,1357.91Z" fill="#917524"/><path d="M-5593.636,1367.231a.708.708,0,0,0-.935-.136l-1.787,1.248a.848.848,0,0,1-1-.064l-1.929-1.733a.734.734,0,0,0-.956,0l-1.921,1.729a.85.85,0,0,1-1,.064l-1.795-1.25a.706.706,0,0,0-.934.137l-1.878,2.305c-.225.276-.161.359.144.184l1.589-.915a.876.876,0,0,1,1,.142l1.948,1.983a.728.728,0,0,0,.953.06l1.879-1.5a.841.841,0,0,1,1,0l1.87,1.494a.731.731,0,0,0,.953-.061l1.936-1.974a.876.876,0,0,1,1-.142l1.59.914c.3.175.369.092.143-.184Z" fill="#664e27"/><path d="M-5591.488,1360.951a.259.259,0,0,1-.07.48,9.606,9.606,0,0,0-3.475,1.037,6.328,6.328,0,0,1,3.788,2.121c.167.208-.041.489-.228.419a13.784,13.784,0,0,0-6.669-.894c-.205.021-.381-.1-.338-.3A4.769,4.769,0,0,1-5591.488,1360.951Z" fill="#664e27"/><path d="M-5608.046,1360.951a.259.259,0,0,0,.07.48,9.609,9.609,0,0,1,3.475,1.037,6.337,6.337,0,0,0-3.789,2.121c-.167.208.042.489.228.419a13.789,13.789,0,0,1,6.67-.894c.205.021.38-.1.337-.3A4.768,4.768,0,0,0-5608.046,1360.951Z" fill="#664e27"/><path d="M-5641.195,1326.493a12.91,12.91,0,0,1-12.627,13.176,12.908,12.908,0,0,1-12.626-13.176,12.911,12.911,0,0,1,12.626-13.175A12.91,12.91,0,0,1-5641.195,1326.493Z" fill="#ffdd67"/><path d="M-5646.915,1318.112a5.944,5.944,0,0,0-4.413,2.658c-.138.215-.925-.29-.756-.55a6.853,6.853,0,0,1,5.092-3.067C-5646.693,1317.131-5646.669,1318.094-5646.915,1318.112Z" fill="#917524"/><path d="M-5656.315,1320.77a5.942,5.942,0,0,0-4.411-2.658c-.249-.017-.224-.981.077-.959a6.856,6.856,0,0,1,5.091,3.067C-5655.388,1320.481-5656.177,1320.985-5656.315,1320.77Z" fill="#917524"/><path d="M-5658.361,1329.967a7.326,7.326,0,0,1,9.079,0c.35.253.666-.184.429-.588a5.808,5.808,0,0,0-4.969-2.85,5.807,5.807,0,0,0-4.967,2.85C-5659.027,1329.783-5658.712,1330.22-5658.361,1329.967Z" fill="#664e27"/><path d="M-5652.174,1321.678c1.773,3.492,5.343,3.491,7.117,0,.088-.176-.143-.255-.425-.455a5.228,5.228,0,0,1-6.267,0C-5652.031,1321.423-5652.261,1321.5-5652.174,1321.678Z" fill="#664e27"/><path d="M-5662.586,1321.678c1.774,3.492,5.344,3.491,7.118,0,.087-.176-.143-.255-.425-.455a5.229,5.229,0,0,1-6.268,0C-5662.443,1321.423-5662.673,1321.5-5662.586,1321.678Z" fill="#664e27"/><path d="M-5641.316,1333.234a2.572,2.572,0,0,0-3.089-1.322,2.354,2.354,0,0,0-1.441,1.057c-3.3-.653-6.313-6.742-6.313-6.742s.078,4.969,2.468,7.88a2.861,2.861,0,0,0-1.622-.031,2.013,2.013,0,0,0-1.571,2.6,2.571,2.571,0,0,0,3.089,1.322,2.492,2.492,0,0,0,.265-.089,3.637,3.637,0,0,0,4.2,1.617,2.805,2.805,0,0,0,2.187-3.621l-.007-.013c.089-.016.176-.035.262-.058A2.014,2.014,0,0,0-5641.316,1333.234Z" fill="#d8d8d8"/><path d="M-5666.327,1333.234a2.574,2.574,0,0,1,3.09-1.322,2.352,2.352,0,0,1,1.441,1.057c3.3-.653,6.312-6.742,6.312-6.742s-.078,4.969-2.466,7.88a2.861,2.861,0,0,1,1.622-.031,2.013,2.013,0,0,1,1.57,2.6,2.573,2.573,0,0,1-3.089,1.322,2.617,2.617,0,0,1-.266-.089,3.635,3.635,0,0,1-4.2,1.617,2.8,2.8,0,0,1-2.186-3.621l.007-.013c-.09-.016-.176-.035-.264-.058A2.016,2.016,0,0,1-5666.327,1333.234Z" fill="#d8d8d8"/><path d="M-5642.313,1332.131a2.266,2.266,0,0,0-2.842-1.414,2.233,2.233,0,0,0-1.327,1.13c-3.037-.7-5.809-7.209-5.809-7.209s.071,5.314,2.27,8.427a2.273,2.273,0,0,0-1.492-.032,2.193,2.193,0,0,0-1.445,2.78,2.264,2.264,0,0,0,2.842,1.414,2.132,2.132,0,0,0,.244-.1,3.16,3.16,0,0,0,3.865,1.729,3.058,3.058,0,0,0,2.013-3.872c0-.007-.006-.009-.006-.015.081-.016.161-.037.241-.061A2.2,2.2,0,0,0-5642.313,1332.131Z" fill="#fff"/><path d="M-5665.331,1332.131a2.267,2.267,0,0,1,2.843-1.414,2.227,2.227,0,0,1,1.326,1.13c3.038-.7,5.809-7.209,5.809-7.209s-.071,5.314-2.27,8.427a2.273,2.273,0,0,1,1.492-.032,2.194,2.194,0,0,1,1.446,2.78,2.264,2.264,0,0,1-2.842,1.414,2.014,2.014,0,0,1-.245-.1,3.16,3.16,0,0,1-3.865,1.729,3.058,3.058,0,0,1-2.012-3.872c0-.007,0-.009.006-.015a2.465,2.465,0,0,1-.242-.061A2.2,2.2,0,0,1-5665.331,1332.131Z" fill="#fff"/><path d="M-5566.026,1404.9a12.91,12.91,0,0,1,12.627,13.175,12.91,12.91,0,0,1-12.627,13.175,12.91,12.91,0,0,1-12.627-13.175A12.91,12.91,0,0,1-5566.026,1404.9Z" fill="#ffdd67"/><path d="M-5562.415,1424.409a8.265,8.265,0,0,0-7.238-.006c-.562.283.14,1.823.7,1.537a6.8,6.8,0,0,1,5.84.005C-5562.551,1426.217-5561.818,1424.71-5562.415,1424.409Z" fill="#664e27"/><ellipse cx="3.788" cy="3.953" rx="3.788" ry="3.953" transform="translate(-5564.342 1413.68)" fill="#fff"/><path d="M-5560.554,1415a2.582,2.582,0,0,1,2.525,2.635,2.582,2.582,0,0,1-2.525,2.635,2.582,2.582,0,0,1-2.526-2.635A2.582,2.582,0,0,1-5560.554,1415Z" fill="#664e27"/><path d="M-5559.9,1418.168a1.323,1.323,0,0,1,1.183,1.427,1.323,1.323,0,0,1-1.183,1.428,1.323,1.323,0,0,1-1.184-1.428A1.323,1.323,0,0,1-5559.9,1418.168Z" fill="#fff"/><path d="M-5561.489,1416.8a.774.774,0,0,1,.692.835.775.775,0,0,1-.692.836.775.775,0,0,1-.693-.836A.774.774,0,0,1-5561.489,1416.8Z" fill="#fff"/><ellipse cx="3.788" cy="3.953" rx="3.788" ry="3.953" transform="translate(-5575.286 1413.68)" fill="#fff"/><path d="M-5571.5,1415a2.582,2.582,0,0,1,2.525,2.635,2.582,2.582,0,0,1-2.525,2.635,2.582,2.582,0,0,1-2.526-2.635A2.582,2.582,0,0,1-5571.5,1415Z" fill="#664e27"/><path d="M-5570.845,1418.168a1.322,1.322,0,0,1,1.183,1.427,1.323,1.323,0,0,1-1.183,1.428,1.323,1.323,0,0,1-1.183-1.428A1.322,1.322,0,0,1-5570.845,1418.168Z" fill="#fff"/><path d="M-5572.433,1416.8a.774.774,0,0,1,.692.835.775.775,0,0,1-.692.836.775.775,0,0,1-.692-.836A.774.774,0,0,1-5572.433,1416.8Z" fill="#fff"/><path d="M-5559.714,1419.829c-2.138,2.974-3.366,5.71-3.366,7.959a3.413,3.413,0,0,0,3.367,3.459,3.414,3.414,0,0,0,3.367-3.459C-5556.346,1425.539-5557.61,1422.756-5559.714,1419.829Z" fill="#65b1ef"/><path d="M-5557.1,1413.108a5.812,5.812,0,0,0-4.921-1.376c-.244.05-.458-.887-.162-.946a6.7,6.7,0,0,1,5.679,1.587C-5556.28,1412.579-5556.915,1413.278-5557.1,1413.108Z" fill="#917524"/><path d="M-5570.031,1411.667a5.809,5.809,0,0,0-4.92,1.375c-.186.171-.823-.528-.594-.735a6.706,6.706,0,0,1,5.678-1.588C-5569.571,1410.779-5569.787,1411.716-5570.031,1411.667Z" fill="#917524"/><path d="M-5572.141,1389.594c2.9,0,5.25.3,5.25.658s-2.351.659-5.25.659-5.25-.3-5.25-.659S-5575.04,1389.594-5572.141,1389.594Z" fill="#65b1ef"/><path d="M-5561,1389.594c4.2,0,7.6.354,7.6.791s-3.4.792-7.6.792-7.6-.355-7.6-.792S-5565.191,1389.594-5561,1389.594Z" fill="#65b1ef"/><path d="M-5566.026,1364.827A12.91,12.91,0,0,1-5553.4,1378a12.91,12.91,0,0,1-12.627,13.175A12.91,12.91,0,0,1-5578.653,1378,12.91,12.91,0,0,1-5566.026,1364.827Z" fill="#ffdd67"/><path d="M-5560.666,1384.151c-.587-1.579-2.011-2.636-5.361-2.636s-4.774,1.057-5.36,2.636a4.157,4.157,0,0,0,.135,2.195c.56,1.706.481,2.2,5.226,2.2s4.666-.49,5.225-2.2A4.149,4.149,0,0,0-5560.666,1384.151Z" fill="#664e27"/><path d="M-5562.25,1383.7a.429.429,0,0,0-.071-.35s-.847-.953-3.706-.953-3.705.953-3.705.953a.432.432,0,0,0-.071.35l.064.247a.268.268,0,0,0,.221.208h6.983a.266.266,0,0,0,.22-.208Z" fill="#fff"/><path d="M-5560.773,1390.505h2.876c3.452-4.355-.65-8.794.378-13.086-.959,0-1.918,1.118-2.877,1.118C-5561.721,1382.7-5557.321,1386.15-5560.773,1390.505Z" fill="#65b1ef"/><path d="M-5571.28,1390.505h-2.876c-3.452-4.355.65-8.794-.377-13.086.958,0,1.917,1.118,2.876,1.118C-5570.332,1382.7-5574.732,1386.15-5571.28,1390.505Z" fill="#65b1ef"/><path d="M-5562.378,1371.987a5.847,5.847,0,0,0,4.787,1.818c.247-.027.382.926.083.958a6.74,6.74,0,0,1-5.524-2.1C-5563.243,1372.439-5562.551,1371.8-5562.378,1371.987Z" fill="#917524"/><path d="M-5574.463,1373.8a5.849,5.849,0,0,0,4.788-1.818c.172-.187.864.452.654.678a6.75,6.75,0,0,1-5.526,2.1C-5574.846,1374.731-5574.709,1373.777-5574.463,1373.8Z" fill="#917524"/><path d="M-5564.379,1377.244c1.773,3.493,5.344,3.492,7.118,0,.088-.175-.144-.254-.426-.454a5.228,5.228,0,0,1-6.267,0C-5564.236,1376.99-5564.466,1377.069-5564.379,1377.244Z" fill="#664e27"/><path d="M-5574.791,1377.244c1.774,3.493,5.344,3.492,7.118,0,.088-.175-.143-.254-.425-.454a5.229,5.229,0,0,1-6.268,0C-5574.648,1376.99-5574.878,1377.069-5574.791,1377.244Z" fill="#664e27"/><path d="M-5478.629,1313.319A12.909,12.909,0,0,1-5466,1326.494a12.91,12.91,0,0,1-12.626,13.175,12.911,12.911,0,0,1-12.628-13.175A12.91,12.91,0,0,1-5478.629,1313.319Z" fill="#ffdd67"/><path d="M-5483.891,1318.933a4.3,4.3,0,0,1,4.209,4.392,4.3,4.3,0,0,1-4.209,4.392,4.3,4.3,0,0,1-4.209-4.392A4.3,4.3,0,0,1-5483.891,1318.933Z" fill="#fff"/><path d="M-5483.891,1321.788a1.506,1.506,0,0,1,1.473,1.537,1.506,1.506,0,0,1-1.473,1.537,1.506,1.506,0,0,1-1.473-1.537A1.506,1.506,0,0,1-5483.891,1321.788Z" fill="#664e27"/><path d="M-5473.369,1318.933a4.3,4.3,0,0,1,4.209,4.392,4.3,4.3,0,0,1-4.209,4.392,4.3,4.3,0,0,1-4.209-4.392A4.3,4.3,0,0,1-5473.369,1318.933Z" fill="#fff"/><path d="M-5473.369,1321.788a1.506,1.506,0,0,1,1.473,1.537,1.506,1.506,0,0,1-1.473,1.537,1.506,1.506,0,0,1-1.473-1.537A1.506,1.506,0,0,1-5473.369,1321.788Z" fill="#664e27"/><path d="M-5472.032,1331.763c-.722-1.577-2.475-2.635-6.6-2.635s-5.876,1.058-6.6,2.635a3.43,3.43,0,0,0,.165,2.2c.69,1.7.593,2.2,6.433,2.2s5.742-.491,6.431-2.2A3.431,3.431,0,0,0-5472.032,1331.763Z" fill="#664e27"/><path d="M-5473.847,1331.309a.36.36,0,0,0-.091-.35s-1.072-.952-4.691-.952-4.692.952-4.692.952a.357.357,0,0,0-.091.35l.082.247a.317.317,0,0,0,.279.208h8.842a.319.319,0,0,0,.28-.208Z" fill="#fff"/><path d="M-5470.968,1318.349a5.813,5.813,0,0,0-4.922-1.376c-.243.05-.457-.887-.162-.947a6.706,6.706,0,0,1,5.679,1.588C-5470.145,1317.82-5470.782,1318.519-5470.968,1318.349Z" fill="#917524"/><path d="M-5481.37,1316.907a5.816,5.816,0,0,0-4.922,1.376c-.187.171-.822-.529-.594-.735a6.706,6.706,0,0,1,5.678-1.588C-5480.912,1316.019-5481.128,1316.957-5481.37,1316.907Z" fill="#917524"/><path d="M-5566.026,1441.124c7.333,0,13.278,6.2,13.278,13.854s-5.945,13.854-13.278,13.854-13.278-6.2-13.278-13.854S-5573.359,1441.124-5566.026,1441.124Z" fill="#ffdd67"/><path d="M-5562.742,1448.622a6.116,6.116,0,0,0,5.176,1.448c.256-.053.482.933.171.995a7.051,7.051,0,0,1-5.972-1.67C-5563.606,1449.179-5562.937,1448.444-5562.742,1448.622Z" fill="#917524"/><path d="M-5574.486,1450a6.111,6.111,0,0,0,5.175-1.447c.2-.18.865.557.625.773a7.052,7.052,0,0,1-5.972,1.67C-5574.969,1450.933-5574.742,1449.947-5574.486,1450Z" fill="#917524"/><path d="M-5564.327,1451.647c.89,4.051,4.517,5.065,7.23,2.022.135-.153-.079-.3-.313-.583a5.539,5.539,0,0,1-6.366-1.779C-5564.115,1451.429-5564.37,1451.444-5564.327,1451.647Z" fill="#664e27"/><path d="M-5574.955,1453.669c2.713,3.044,6.339,2.029,7.23-2.022.043-.2-.212-.218-.55-.34a5.541,5.541,0,0,1-6.366,1.78C-5574.876,1453.37-5575.089,1453.516-5574.955,1453.669Z" fill="#664e27"/><path d="M-5559.088,1460.52c-.759-1.659-2.6-2.771-6.938-2.771s-6.178,1.112-6.938,2.771a3.6,3.6,0,0,0,.175,2.309c.724,1.793.623,2.309,6.764,2.309s6.038-.516,6.762-2.309A3.616,3.616,0,0,0-5559.088,1460.52Z" fill="#664e27"/><path d="M-5561,1460.042a.378.378,0,0,0-.1-.368s-1.126-1-4.933-1-4.933,1-4.933,1a.378.378,0,0,0-.1.368l.087.259a.334.334,0,0,0,.294.219h9.3a.334.334,0,0,0,.294-.219Z" fill="#fff"/><ellipse cx="12.627" cy="13.175" rx="12.627" ry="13.175" transform="translate(-5641.15 1249.315)" fill="#ffdd67"/><path d="M-5619.888,1266c-.944-1.578-3.239-2.635-8.635-2.635s-7.69,1.057-8.635,2.635c-.5.843.217,2.2.217,2.2.9,1.705.775,2.2,8.418,2.2s7.516-.491,8.418-2.2C-5620.1,1268.2-5619.383,1266.846-5619.888,1266Z" fill="#664e27"/><path d="M-5633.364,1257a2.152,2.152,0,0,1,2.1,2.2,2.152,2.152,0,0,1-2.1,2.2,2.151,2.151,0,0,1-2.1-2.2A2.152,2.152,0,0,1-5633.364,1257Z" fill="#664e27"/><path d="M-5623.683,1257a2.153,2.153,0,0,1,2.1,2.2,2.152,2.152,0,0,1-2.1,2.2,2.151,2.151,0,0,1-2.1-2.2A2.152,2.152,0,0,1-5623.683,1257Z" fill="#664e27"/><path d="M-5621.8,1265.994a.7.7,0,0,0-.257-.653s-1.642-1.094-6.469-1.094-6.469,1.094-6.469,1.094a.7.7,0,0,0-.256.653l.083.457a.518.518,0,0,0,.467.431h12.35a.518.518,0,0,0,.467-.431Z" fill="#fff"/><path d="M-5628.523,1269.517c2.644,0,6.413,0,6.312-.9a3.636,3.636,0,0,0-.12-.561c-.064-.23-.116-.294-.571-.294h-11.242c-.455,0-.506.064-.571.294a3.883,3.883,0,0,0-.12.561C-5634.936,1269.517-5631.167,1269.517-5628.523,1269.517Z" fill="#fff"/><path d="M-5516.223,1313.319c-6.951,0-12.622,5.9-12.622,13.175,0,2.136,6.632,10.039,9.688,12.1a5.925,5.925,0,0,0,2.934,1.076,5.911,5.911,0,0,0,2.958-1.076c3.058-2.06,9.664-9.963,9.664-12.1A12.9,12.9,0,0,0-5516.223,1313.319Z" fill="#ffdd67"/><path d="M-5516.833,1323.284a4.311,4.311,0,0,1-4.223,4.392,4.289,4.289,0,0,1-4.195-4.392,4.289,4.289,0,0,1,4.195-4.392A4.311,4.311,0,0,1-5516.833,1323.284Z" fill="#fff"/><path d="M-5519.581,1323.284a1.5,1.5,0,0,1-1.473,1.537,1.522,1.522,0,0,1-1.473-1.537,1.522,1.522,0,0,1,1.473-1.537A1.5,1.5,0,0,1-5519.581,1323.284Z" fill="#664e27"/><path d="M-5507.17,1323.284a4.306,4.306,0,0,1-4.2,4.392,4.311,4.311,0,0,1-4.222-4.392,4.311,4.311,0,0,1,4.222-4.392A4.306,4.306,0,0,1-5507.17,1323.284Z" fill="#fff"/><path d="M-5509.9,1323.284a1.5,1.5,0,0,1-1.455,1.537,1.508,1.508,0,0,1-1.491-1.537,1.509,1.509,0,0,1,1.491-1.537A1.5,1.5,0,0,1-5509.9,1323.284Z" fill="#664e27"/><path d="M-5512.7,1332.67c0,2.915-1.577,5.279-3.525,5.279-1.922,0-3.5-2.364-3.5-5.279s1.579-5.28,3.5-5.28C-5514.275,1327.39-5512.7,1329.753-5512.7,1332.67Z" fill="#664e27"/><path d="M-5515.385,1330.6c-.271-.008-.665.265-.517.989.074.365.542.807.542,1.4a.852.852,0,1,1-1.7,0c0-.589.468-1.031.542-1.4.148-.723-.271-1-.518-.989a2.276,2.276,0,0,0-1.873,2.326,2.831,2.831,0,0,0,2.687,2.95,2.834,2.834,0,0,0,2.712-2.95A2.273,2.273,0,0,0-5515.385,1330.6Z" fill="#4c3526"/><path d="M-5516.223,1335.214c-1.626,0-2.07.5-2.07.5a2.372,2.372,0,0,0,2.07,1.572,2.378,2.378,0,0,0,2.1-1.572S-5514.6,1335.214-5516.223,1335.214Z" fill="#ff717f"/><path d="M-5520.142,1315.822a5.9,5.9,0,0,1-4.413,2.659c-.246.017-.221.981.1.958a6.848,6.848,0,0,0,5.078-3.068C-5519.206,1316.111-5519.994,1315.608-5520.142,1315.822Z" fill="#917524"/><path d="M-5507.89,1318.414a5.982,5.982,0,0,1-4.413-2.659c-.123-.215-.912.289-.74.55a6.812,6.812,0,0,0,5.079,3.066C-5507.668,1319.4-5507.644,1318.431-5507.89,1318.414Z" fill="#917524"/><path d="M-5509.345,1332.511c1.7-1.27,2-3.942,4.191-4.788,2.712-1.056,1.134.523.838,2.982-.419,3.4-2.908,5.354-3.278,8.145-.025.2,0,.819,0,.819h-5.77a10.836,10.836,0,0,0,0-1.585C-5513.535,1336.838-5512.648,1334.985-5509.345,1332.511Z" fill="#d8a941"/><path d="M-5523.076,1332.511c-1.7-1.27-2-3.942-4.191-4.788-2.712-1.056-1.134.523-.838,2.982.418,3.4,2.909,5.354,3.279,8.145.025.2,0,.819,0,.819h5.744s-.05-1.192,0-1.585C-5518.885,1336.838-5519.772,1334.985-5523.076,1332.511Z" fill="#d8a941"/><path d="M-5505.294,1380.736a12.91,12.91,0,0,1,12.626,13.175,12.91,12.91,0,0,1-12.626,13.175,12.91,12.91,0,0,1-12.627-13.175A12.91,12.91,0,0,1-5505.294,1380.736Z" fill="#ffdd67"/><path d="M-5496.535,1392.653a3.443,3.443,0,0,1,3.367,3.514,3.443,3.443,0,0,1-3.367,3.513,3.443,3.443,0,0,1-3.368-3.513A3.443,3.443,0,0,1-5496.535,1392.653Z" fill="#ff717f"/><path d="M-5514.054,1392.653a3.442,3.442,0,0,1,3.367,3.514,3.442,3.442,0,0,1-3.367,3.513,3.443,3.443,0,0,1-3.367-3.513A3.443,3.443,0,0,1-5514.054,1392.653Z" fill="#ff717f"/><path d="M-5495.763,1388.916a5.9,5.9,0,0,0-4.619-2.247c-.247.005-.3-.956,0-.961a6.8,6.8,0,0,1,5.329,2.593C-5494.866,1388.544-5495.608,1389.117-5495.763,1388.916Z" fill="#917524"/><path d="M-5510.208,1386.6a5.9,5.9,0,0,0-4.619,2.246c-.155.2-.9-.372-.707-.616a6.8,6.8,0,0,1,5.328-2.593C-5509.9,1385.647-5509.96,1386.609-5510.208,1386.6Z" fill="#917524"/><path d="M-5505.294,1399.607a1.937,1.937,0,0,1,1.893,1.977,1.936,1.936,0,0,1-1.893,1.976,1.937,1.937,0,0,1-1.9-1.976A1.937,1.937,0,0,1-5505.294,1399.607Z" fill="#664e27"/><path d="M-5506.347,1392.653a3.873,3.873,0,0,1-3.787,3.953,3.873,3.873,0,0,1-3.789-3.953,3.874,3.874,0,0,1,3.789-3.952A3.874,3.874,0,0,1-5506.347,1392.653Z" fill="#fff"/><path d="M-5510.134,1390.677a1.936,1.936,0,0,1,1.893,1.976,1.935,1.935,0,0,1-1.893,1.976,1.936,1.936,0,0,1-1.9-1.976A1.936,1.936,0,0,1-5510.134,1390.677Z" fill="#664e27"/><path d="M-5496.667,1392.653a3.873,3.873,0,0,1-3.787,3.953,3.873,3.873,0,0,1-3.788-3.953,3.874,3.874,0,0,1,3.788-3.952A3.873,3.873,0,0,1-5496.667,1392.653Z" fill="#fff"/><path d="M-5500.454,1390.677a1.937,1.937,0,0,1,1.894,1.976,1.936,1.936,0,0,1-1.894,1.976,1.936,1.936,0,0,1-1.894-1.976A1.937,1.937,0,0,1-5500.454,1390.677Z" fill="#664e27"/><ellipse cx="12.627" cy="13.175" rx="12.627" ry="13.175" transform="translate(-5626.647 1313.319)" fill="#ef5350"/><path d="M-5610.238,1334.251a5.329,5.329,0,0,0-7.566,0c-.292.252-.555-.184-.358-.587a4.775,4.775,0,0,1,4.141-2.851,4.775,4.775,0,0,1,4.14,2.851C-5609.683,1334.067-5609.945,1334.5-5610.238,1334.251Z" fill="#302424"/><path d="M-5623.21,1323.391a4.447,4.447,0,0,0,2.218,5.326,4.1,4.1,0,0,0,5.331-1.645l-2.9-3.391Z" fill="#fff"/><path d="M-5621.5,1323.759a2.608,2.608,0,0,0,1.184,3.4,2.412,2.412,0,0,0,3.26-1.238C-5616.689,1325.11-5621.132,1322.947-5621.5,1323.759Z" fill="#302424"/><path d="M-5623.21,1323.391a3.962,3.962,0,0,1,2.267-.639,5.557,5.557,0,0,1,2.352.562,5.71,5.71,0,0,1,1.935,1.511,4.325,4.325,0,0,1,.995,2.246,12.535,12.535,0,0,0-1.671-1.487,11.432,11.432,0,0,0-1.788-1.076,11.344,11.344,0,0,0-1.946-.731A12.528,12.528,0,0,0-5623.21,1323.391Z" fill="#302424"/><path d="M-5604.831,1323.391a4.449,4.449,0,0,1-2.218,5.326,4.1,4.1,0,0,1-5.332-1.645l2.9-3.391Z" fill="#fff"/><path d="M-5606.546,1323.759a2.607,2.607,0,0,1-1.184,3.4,2.413,2.413,0,0,1-3.26-1.238C-5611.352,1325.11-5606.909,1322.947-5606.546,1323.759Z" fill="#302424"/><path d="M-5604.831,1323.391a3.964,3.964,0,0,0-2.267-.639,5.563,5.563,0,0,0-2.353.562,5.728,5.728,0,0,0-1.935,1.511,4.333,4.333,0,0,0-.995,2.246,12.54,12.54,0,0,1,1.672-1.487,11.432,11.432,0,0,1,1.788-1.076,11.365,11.365,0,0,1,1.945-.731A12.557,12.557,0,0,1-5604.831,1323.391Z" fill="#302424"/><path d="M-5690.929,1313.319a12.909,12.909,0,0,1,12.627,13.175,12.911,12.911,0,0,1-12.627,13.175,12.911,12.911,0,0,1-12.627-13.175A12.909,12.909,0,0,1-5690.929,1313.319Z" fill="#ffdd67"/><path d="M-5687.146,1334.251a5.33,5.33,0,0,0-7.567,0c-.291.252-.554-.184-.357-.587a4.774,4.774,0,0,1,4.14-2.851,4.772,4.772,0,0,1,4.14,2.851C-5686.591,1334.067-5686.854,1334.5-5687.146,1334.251Z" fill="#664e27"/><path d="M-5700.119,1323.391a4.448,4.448,0,0,0,2.219,5.326,4.1,4.1,0,0,0,5.331-1.645l-2.9-3.391Z" fill="#fff"/><path d="M-5698.4,1323.759a2.607,2.607,0,0,0,1.185,3.4,2.411,2.411,0,0,0,3.259-1.238C-5693.6,1325.11-5698.04,1322.947-5698.4,1323.759Z" fill="#664e27"/><path d="M-5700.119,1323.391a3.967,3.967,0,0,1,2.268-.639,5.555,5.555,0,0,1,2.352.562,5.7,5.7,0,0,1,1.935,1.511,4.325,4.325,0,0,1,1,2.246,12.6,12.6,0,0,0-1.671-1.487,11.391,11.391,0,0,0-1.789-1.076,11.324,11.324,0,0,0-1.945-.731A12.531,12.531,0,0,0-5700.119,1323.391Z" fill="#664e27"/><path d="M-5681.739,1323.391a4.449,4.449,0,0,1-2.218,5.326,4.1,4.1,0,0,1-5.332-1.645l2.9-3.391Z" fill="#fff"/><path d="M-5683.454,1323.759a2.608,2.608,0,0,1-1.184,3.4,2.412,2.412,0,0,1-3.26-1.238C-5688.26,1325.11-5683.818,1322.947-5683.454,1323.759Z" fill="#664e27"/><path d="M-5681.739,1323.391a3.97,3.97,0,0,0-2.268-.639,5.563,5.563,0,0,0-2.353.562,5.72,5.72,0,0,0-1.934,1.511,4.333,4.333,0,0,0-1,2.246,12.626,12.626,0,0,1,1.671-1.487,11.508,11.508,0,0,1,1.789-1.076,11.354,11.354,0,0,1,1.945-.731A12.531,12.531,0,0,1-5681.739,1323.391Z" fill="#664e27"/></g></svg>